<svg width="27" height="45" viewBox="0 0 27 45" fill="none" xmlns="http://www.w3.org/2000/svg">
<path d="M12.1515 42.8906L12.1515 1.06534C12.1515 0.475852 12.6274 0 13.2169 0C13.8064 0 14.2822 0.475852 14.2822 1.06534L14.2822 42.8906C14.2822 43.4801 13.8064 43.956 13.2169 43.956C12.6274 43.956 12.1515 43.4801 12.1515 42.8906Z" fill="black"/>
<path d="M-2.09808e-05 33.2741C-2.09808e-05 33.0255 0.0852051 32.7698 0.269863 32.5639C0.660488 32.1235 1.33521 32.088 1.77555 32.4787L13.0469 42.5142L24.6378 32.4715C25.0852 32.088 25.7528 32.1377 26.1434 32.5781C26.527 33.0255 26.4844 33.6931 26.0369 34.0838L13.7429 44.7443C13.338 45.0923 12.7344 45.0923 12.3366 44.7372L0.369295 34.0767C0.13492 33.8636 0.0141811 33.5724 0.0141811 33.2812L-2.09808e-05 33.2741Z" fill="black"/>
</svg>
