<svg width="31" height="40" viewBox="0 0 31 40" fill="none" xmlns="http://www.w3.org/2000/svg">
<path d="M29.14 31.7969C28.1144 31.7969 27.28 32.5855 27.28 33.5547V34.1406H23.5087L21.0777 7.56672C21.05 7.26383 20.7817 7.03125 20.46 7.03125C20.1181 7.03125 19.84 6.76844 19.84 6.44531C19.84 6.12219 20.1181 5.85938 20.46 5.85938C20.8025 5.85938 21.08 5.59711 21.08 5.27344C21.08 2.36562 18.5769 0 15.5 0C12.4231 0 9.92 2.36562 9.92 5.27344C9.92 5.59711 10.1975 5.85938 10.54 5.85938C10.8819 5.85938 11.16 6.12219 11.16 6.44531C11.16 6.76844 10.8819 7.03125 10.54 7.03125C10.2183 7.03125 9.95001 7.26383 9.92231 7.56672L7.49134 34.1406H3.72V33.5547C3.72 32.5855 2.88556 31.7969 1.86 31.7969C0.834437 31.7969 0 32.5855 0 33.5547V39.4141C0 39.7377 0.277512 40 0.62 40H30.38C30.7225 40 31 39.7377 31 39.4141V33.5547C31 32.5855 30.1656 31.7969 29.14 31.7969ZM22.2641 34.1406H18.8144V10.5469H20.1057L22.2641 34.1406ZM13.4256 28.2812H17.5744V34.1406H13.4256V28.2812ZM11.0015 9.375L11.1087 8.20312H19.8913L19.9985 9.375H11.0015ZM11.189 4.79789C11.4392 2.75945 13.277 1.17188 15.5 1.17188C17.723 1.17188 19.5608 2.75945 19.811 4.79789C19.1045 5.04727 18.6 5.69172 18.6 6.44531C18.6 6.65078 18.6384 6.84781 18.7073 7.03125H12.2927C12.3616 6.84781 12.4 6.65078 12.4 6.44531C12.4 5.69172 11.8955 5.04727 11.189 4.79789ZM10.8943 10.5469H12.1856V17.6562C12.1856 17.9799 12.4631 18.2422 12.8056 18.2422C13.1481 18.2422 13.4256 17.9799 13.4256 17.6562V10.5469H17.5744V27.1094H13.4256V20C13.4256 19.6763 13.1481 19.4141 12.8056 19.4141C12.4631 19.4141 12.1856 19.6763 12.1856 20V34.1406H8.73588L10.8943 10.5469ZM27.28 35.3125V36.4844H3.72V35.3125H27.28ZM2.48 38.8281H1.24V33.5547C1.24 33.2316 1.51809 32.9688 1.86 32.9688C2.20191 32.9688 2.48 33.2316 2.48 33.5547V38.8281ZM3.72 38.8281V37.6562H27.28V38.8281H3.72ZM29.76 38.8281H28.52V33.5547C28.52 33.2316 28.7981 32.9688 29.14 32.9688C29.4819 32.9688 29.76 33.2316 29.76 33.5547V38.8281Z" fill="#D6C835"/>
</svg>
