<svg width="34" height="34" viewBox="0 0 34 34" fill="none" xmlns="http://www.w3.org/2000/svg">
<g clip-path="url(#clip0_25_2337)">
<path d="M25.4999 11.3332H26.9166C28.4195 11.3332 29.8608 11.9302 30.9235 12.9929C31.9862 14.0556 32.5833 15.4969 32.5833 16.9998C32.5833 18.5027 31.9862 19.9441 30.9235 21.0068C29.8608 22.0695 28.4195 22.6665 26.9166 22.6665H25.4999M25.4999 11.3332H2.83325V24.0832C2.83325 25.5861 3.43027 27.0274 4.49298 28.0901C5.55569 29.1528 6.99703 29.7498 8.49992 29.7498H19.8333C21.3361 29.7498 22.7775 29.1528 23.8402 28.0901C24.9029 27.0274 25.4999 25.5861 25.4999 24.0832V11.3332ZM8.49992 1.4165V5.6665M14.1666 1.4165V5.6665M19.8333 1.4165V5.6665" stroke="#D6C835" stroke-width="4" stroke-linecap="round" stroke-linejoin="round"/>
</g>
<defs>
<clipPath id="clip0_25_2337">
<rect width="34" height="34" fill="white"/>
</clipPath>
</defs>
</svg>
