<svg width="34" height="34" viewBox="0 0 34 34" fill="none" xmlns="http://www.w3.org/2000/svg">
<g clip-path="url(#clip0_25_2322)">
<path d="M28.3333 17.0002V31.1668H5.66659V17.0002M16.9999 31.1668V9.91683M16.9999 9.91683H10.6249C9.68561 9.91683 8.78477 9.54369 8.12058 8.8795C7.45639 8.21531 7.08325 7.31447 7.08325 6.37516C7.08325 5.43585 7.45639 4.53502 8.12058 3.87083C8.78477 3.20663 9.68561 2.8335 10.6249 2.8335C15.5833 2.8335 16.9999 9.91683 16.9999 9.91683ZM16.9999 9.91683H23.3749C24.3142 9.91683 25.2151 9.54369 25.8793 8.8795C26.5434 8.21531 26.9166 7.31447 26.9166 6.37516C26.9166 5.43585 26.5434 4.53502 25.8793 3.87083C25.2151 3.20663 24.3142 2.8335 23.3749 2.8335C18.4166 2.8335 16.9999 9.91683 16.9999 9.91683ZM2.83325 9.91683H31.1666V17.0002H2.83325V9.91683Z" stroke="#D6C835" stroke-width="4" stroke-linecap="round" stroke-linejoin="round"/>
</g>
<defs>
<clipPath id="clip0_25_2322">
<rect width="34" height="34" fill="white"/>
</clipPath>
</defs>
</svg>
