<svg width="34" height="34" viewBox="0 0 34 34" fill="none" xmlns="http://www.w3.org/2000/svg">
<path d="M28.3334 17.0002V31.1668H5.66671V17.0002M17 31.1668V9.91683M17 9.91683H10.625C9.68573 9.91683 8.7849 9.54369 8.1207 8.8795C7.45651 8.21531 7.08337 7.31447 7.08337 6.37516C7.08337 5.43585 7.45651 4.53502 8.1207 3.87083C8.7849 3.20663 9.68573 2.8335 10.625 2.8335C15.5834 2.8335 17 9.91683 17 9.91683ZM17 9.91683H23.375C24.3143 9.91683 25.2152 9.54369 25.8794 8.8795C26.5436 8.21531 26.9167 7.31447 26.9167 6.37516C26.9167 5.43585 26.5436 4.53502 25.8794 3.87083C25.2152 3.20663 24.3143 2.8335 23.375 2.8335C18.4167 2.8335 17 9.91683 17 9.91683ZM2.83337 9.91683H31.1667V17.0002H2.83337V9.91683Z" stroke="#D6C835" stroke-width="4" stroke-linecap="round" stroke-linejoin="round"/>
</svg>
