<svg width="16" height="20" viewBox="0 0 16 20" fill="none" xmlns="http://www.w3.org/2000/svg">
<path d="M8.00005 0.54981C6.11934 0.552033 4.3163 1.30013 2.98643 2.62999C1.65657 3.95985 0.908473 5.7629 0.90625 7.64361C0.90625 11.9066 5.00965 16.9382 6.78625 18.9038C6.94026 19.0754 7.12869 19.2127 7.33927 19.3066C7.54985 19.4006 7.77786 19.4492 8.00845 19.4492C8.23904 19.4492 8.46705 19.4006 8.67763 19.3066C8.88821 19.2127 9.07664 19.0754 9.23065 18.9038C10.9989 16.9382 15.1107 11.9024 15.1107 7.64361C15.1095 6.71093 14.9248 5.78761 14.5668 4.92635C14.2089 4.0651 13.6848 3.28278 13.0245 2.62405C12.3642 1.96533 11.5807 1.44312 10.7186 1.08722C9.85648 0.731317 8.93272 0.548706 8.00005 0.54981ZM8.42005 18.1898C8.36527 18.2516 8.29802 18.301 8.22272 18.3349C8.14743 18.3688 8.06581 18.3863 7.98325 18.3863C7.90069 18.3863 7.81907 18.3688 7.74377 18.3349C7.66848 18.301 7.60123 18.2516 7.54645 18.1898C5.86645 16.3166 1.94365 11.5328 1.94365 7.63521C1.94365 6.03341 2.57996 4.49721 3.71261 3.36457C4.84525 2.23192 6.38145 1.59561 7.98325 1.59561C9.58505 1.59561 11.1212 2.23192 12.2539 3.36457C13.3865 4.49721 14.0228 6.03341 14.0228 7.63521C14.0396 11.537 10.1211 16.3208 8.42005 18.1982V18.1898Z" fill="#9F9B9B"/>
<path d="M8 3.7002C7.22331 3.7002 6.46407 3.93051 5.81828 4.36201C5.17248 4.79352 4.66915 5.40683 4.37192 6.1244C4.0747 6.84196 3.99693 7.63155 4.14846 8.39332C4.29998 9.15508 4.67399 9.8548 5.22319 10.404C5.77239 10.9532 6.47212 11.3272 7.23388 11.4787C7.99564 11.6303 8.78523 11.5525 9.5028 11.2553C10.2204 10.958 10.8337 10.4547 11.2652 9.80892C11.6967 9.16313 11.927 8.40388 11.927 7.62719C11.927 6.58569 11.5133 5.58684 10.7768 4.85039C10.0404 4.11393 9.0415 3.7002 8 3.7002ZM8 10.5C7.43181 10.5 6.87639 10.3315 6.40396 10.0158C5.93153 9.70017 5.56331 9.2515 5.34588 8.72657C5.12844 8.20163 5.07155 7.62401 5.1824 7.06674C5.29325 6.50947 5.56686 5.99759 5.96862 5.59582C6.37039 5.19405 6.88228 4.92044 7.43954 4.8096C7.99681 4.69875 8.57444 4.75564 9.09937 4.97307C9.62431 5.19051 10.073 5.55872 10.3886 6.03115C10.7043 6.50358 10.8728 7.05901 10.8728 7.62719C10.8745 8.00571 10.8014 8.38084 10.6578 8.73107C10.5143 9.08131 10.303 9.39977 10.0361 9.6682C9.76922 9.93664 9.452 10.1498 9.10261 10.2954C8.75321 10.441 8.37852 10.5162 8 10.5168V10.5Z" fill="#9F9B9B"/>
</svg>
