<svg width="945" height="487" viewBox="0 0 945 487" fill="none" xmlns="http://www.w3.org/2000/svg">
<path d="M40 61.9236C61.3333 84.5903 114.8 129.924 158 129.924C212 129.924 316 105.924 356 83.9236C396 61.9236 510 13.9236 578 5.9236C646 -2.0764 814 13.9238 872 71.9236C905.903 105.827 947.027 228.923 940 293.923C932 367.923 876.8 508.323 720 477.923C524 439.923 550 379.923 408 389.923C294.4 397.923 236 465.923 158 465.923C120.667 465.923 38 461.123 6 441.923" stroke="black" stroke-width="8"/>
<circle cx="420.5" cy="388.5" r="12.5" fill="black"/>
<circle cx="377.5" cy="75.5" r="12.5" fill="black"/>
<circle cx="887.5" cy="423.5" r="12.5" fill="black"/>
<circle cx="12.5" cy="437.5" r="12.5" fill="black"/>
<circle cx="875.5" cy="75.5" r="12.5" fill="black"/>
<circle cx="34.5" cy="55.5" r="12.5" fill="black"/>
</svg>
