<svg width="314" height="169" viewBox="0 0 314 169" fill="none" xmlns="http://www.w3.org/2000/svg">
<path d="M214.772 24.6945C212.451 23.853 210.161 22.925 207.911 21.9086C200.781 18.6886 195.191 13.6995 188.713 9.45208C180.105 3.8083 170.102 -0.554542 159.836 0.194173C139.045 1.71041 124.642 22.9031 104.317 27.5349C88.6691 31.101 72.1414 24.2313 56.3904 27.311C37.3397 31.0362 23.1745 50.1774 23.2799 69.5889C23.3848 89.0004 36.4755 107.196 54.0808 115.373C71.6861 123.55 92.906 122.26 110.443 113.937C121.604 108.639 131.498 100.515 143.469 96.9948C167.938 89.7998 190.178 100.184 212.876 108.293C224.467 112.434 236.579 115.836 248.879 115.403C261.179 114.969 273.805 110.218 281.412 100.542C289.576 90.1567 290.744 75.1894 285.701 62.9791C280.659 50.7687 270.024 41.3376 257.85 36.2068C249.162 32.5446 239.769 30.7874 230.553 29.0192C225.191 27.9906 219.904 26.5553 214.772 24.6945Z" fill="#FFD880"/>
<path d="M275.878 168.373C296.614 168.373 313.424 167.275 313.424 165.919C313.424 164.564 296.614 163.465 275.878 163.465C255.141 163.465 238.331 164.564 238.331 165.919C238.331 167.275 255.141 168.373 275.878 168.373Z" fill="#FFCF8C"/>
<path d="M252.943 60.5634C252.383 60.6569 251.827 60.887 251.442 61.3055C251.054 61.7271 250.874 62.2952 250.719 62.8471C249.84 65.974 249.417 69.2291 249.467 72.4768C249.478 73.2027 249.515 73.9383 249.737 74.6298C249.959 75.3207 250.389 75.9715 251.025 76.3209C251.763 76.7268 252.661 76.6778 253.497 76.5768C254.162 76.4963 254.878 76.362 255.328 75.8665C255.737 75.4156 255.831 74.7697 255.901 74.1644C256.269 70.9474 256.47 67.7107 256.502 64.4727C256.51 63.6662 256.504 62.8384 256.216 62.0848C255.667 60.6447 254.342 60.3294 252.943 60.5634Z" fill="#45046A"/>
<path d="M278.593 42.6486C276.586 41.6113 262.067 40.6238 258.584 43.9462C255.101 47.2686 250.043 73.3743 254.085 78.9119C258.128 84.4494 280.971 81.6881 282.35 77.8045C283.729 73.9206 283.101 44.9783 278.593 42.6486Z" fill="#F1EBBB"/>
<path d="M278.776 41.3523C277.88 40.7295 261.822 38.7668 257.795 43.2359C253.769 47.7054 253.585 53.3567 256.946 53.8736C260.307 54.3905 278.074 53.9842 279.607 52.1745C281.14 50.3649 282.654 44.0489 278.776 41.3523Z" fill="#45046A"/>
<path d="M261.394 160.039C261.394 160.039 254.671 162.787 251.856 163.279C249.041 163.771 249.074 166.176 249.074 166.176C249.074 166.176 259.446 166.544 262.943 165.065L263.565 166.176C263.565 166.176 267.862 166.238 267.872 166.176C267.882 166.114 268.353 162.796 267.136 160.039H261.394Z" fill="#1A0F24"/>
<path d="M259.254 89.0606C259.254 89.0606 258.863 123.829 261.348 160.039C261.348 160.039 261.68 160.769 267.089 160.039C267.089 160.039 270.139 112.446 272.929 88.8958L259.254 89.0606Z" fill="#45046A"/>
<path d="M282.878 160.04C282.878 160.04 289.602 162.788 292.417 163.28C295.232 163.771 295.199 166.177 295.199 166.177C295.199 166.177 284.826 166.545 281.33 165.066L280.708 166.177C280.708 166.177 276.411 166.239 276.401 166.177C276.391 166.115 275.92 162.797 277.137 160.04H282.878Z" fill="#1A0F24"/>
<path d="M285.13 89.4106C285.13 89.4106 291.182 119.949 291.182 125.696C291.182 131.442 282.878 160.04 282.878 160.04C282.878 160.04 279.744 161.12 277.137 160.04C277.137 160.04 281.133 128.666 280.91 126.501C280.688 124.335 271.138 90.2433 271.138 90.2433L285.13 89.4106Z" fill="#45046A"/>
<path d="M296.881 97.428C297.478 97.1954 296.446 95.0896 296.446 95.0896C296.446 95.0896 298.845 99.5793 299.557 99.2172C300.269 98.855 297.706 94.6536 297.706 94.6536C297.706 94.6536 300.834 99.8062 301.558 99.3855C302.281 98.9648 298.928 93.8467 298.928 93.8467C298.928 93.8467 301.934 97.529 302.598 97.02C303.51 96.3202 296.48 88.8948 296.48 88.8948L293.184 91.1602C293.184 91.1602 296.285 97.6607 296.881 97.428Z" fill="#FEBAA3"/>
<path d="M296.481 88.8945C296.481 88.8945 301.293 89.9284 301.497 90.8713C301.699 91.8142 297.948 91.5037 297.948 91.5037L296.481 88.8945Z" fill="#FEBAA3"/>
<path d="M284.926 68.2787C284.206 67.4478 283.928 43.9555 280.726 42.8696C280.726 42.8696 279.108 68.6111 279.385 70.8275C279.662 73.0439 291.919 92.0189 291.919 92.0189C293.809 92.0346 296.952 88.5981 296.952 88.5981C296.952 88.5981 285.646 69.1096 284.926 68.2787Z" fill="#B5076B"/>
<path d="M258.556 89.8203C258.556 89.8203 259.509 90.1194 261.082 90.5169C261.347 90.5852 261.624 90.6538 261.923 90.7264C267.628 92.1023 279.175 94.1835 285.32 90.3416C285.448 90.2646 285.572 90.1832 285.696 90.098C285.696 90.098 285.658 89.6921 285.59 88.957C285.551 88.5126 285.5 87.9441 285.436 87.2689C285.359 86.4528 285.269 85.4784 285.166 84.3759C285.115 83.8419 285.064 83.2734 285.008 82.6795C284.923 81.7777 284.829 80.8077 284.73 79.7905C284.679 79.2434 284.624 78.6753 284.572 78.0984C284.478 77.1669 284.384 76.2008 284.286 75.2054C284.269 75.0301 284.251 74.8551 284.234 74.6754C284.196 74.2906 284.162 73.9018 284.119 73.513C284.029 72.5644 283.935 71.5983 283.837 70.62C283.786 70.0602 283.726 69.4961 283.67 68.9275C283.576 67.9658 283.478 66.9958 283.38 66.0258C283.324 65.4617 283.264 64.9019 283.209 64.3421C283.183 64.0814 283.158 63.8208 283.128 63.5645C283.055 62.8552 282.982 62.1458 282.91 61.4408C282.884 61.1972 282.859 60.958 282.833 60.7188C282.803 60.3938 282.768 60.0733 282.734 59.7488C282.734 59.7317 282.73 59.719 282.73 59.7015C282.679 59.2445 282.628 58.7915 282.585 58.3471C282.546 58.0095 282.512 57.6636 282.474 57.3299C282.457 57.1676 282.44 57.0049 282.423 56.8471C282.393 56.5567 282.358 56.2702 282.333 55.9794C282.303 55.7402 282.273 55.501 282.252 55.2574C282.247 55.2233 282.243 55.1931 282.239 55.159C282.235 55.099 282.226 55.0391 282.222 54.9753C282.171 54.5178 282.12 54.0691 282.068 53.6248C282.025 53.2955 282 52.9622 281.961 52.6377C281.948 52.5096 281.931 52.3815 281.918 52.2533C281.85 51.6809 281.786 51.1167 281.722 50.5696C281.602 49.5523 281.482 48.5784 281.367 47.6635C281.294 47.0779 281.226 46.5181 281.153 45.9798C281.016 44.9031 280.884 43.9243 280.755 43.0737C280.747 43.0055 280.734 42.9368 280.726 42.8686L279.987 42.6294L279.598 42.5012L277.072 41.6764L276.034 41.3344L275.858 41.2789L274.91 40.9714H269.196L268.815 41.0996L267.909 41.3943L267.255 41.6082L264.191 42.6123L264.14 42.6337L263.41 42.8686L263.405 42.9114C263.401 42.9202 263.401 42.9329 263.396 42.9499C263.358 43.2364 263.221 44.2663 263.016 45.8429C262.948 46.3515 262.875 46.9196 262.794 47.5354C262.683 48.403 262.559 49.373 262.426 50.42C262.375 50.8302 262.32 51.2536 262.264 51.6848C262.247 51.8256 262.23 51.9625 262.209 52.1077C262.162 52.4838 262.115 52.8726 262.063 53.2657C262.025 53.6161 261.982 53.9707 261.935 54.3254C261.906 54.5476 261.88 54.7697 261.854 54.9963C261.824 55.2316 261.794 55.4708 261.769 55.71C261.726 56.0306 261.687 56.3594 261.641 56.6888C261.641 56.7058 261.64 56.7185 261.636 56.7355C261.581 57.1886 261.525 57.6544 261.465 58.1201V58.1328C261.422 58.4661 261.384 58.7954 261.345 59.1286C261.328 59.2738 261.307 59.419 261.29 59.5647C261.251 59.8896 261.213 60.2141 261.17 60.5434C261.144 60.7783 261.119 61.0179 261.089 61.2571C261.076 61.3424 261.067 61.4325 261.054 61.5222C260.952 62.3855 260.849 63.2614 260.747 64.1418C260.683 64.7016 260.619 65.2657 260.555 65.8299C260.444 66.7872 260.337 67.7529 260.23 68.7102C260.165 69.2787 260.102 69.8429 260.042 70.4066C259.939 71.3722 259.836 72.3295 259.738 73.2781C259.678 73.8506 259.618 74.4191 259.563 74.9789C259.464 75.9577 259.37 76.9189 259.281 77.8548C259.225 78.4317 259.174 79.0002 259.127 79.5556C259.037 80.5554 258.956 81.5214 258.883 82.4359C258.836 83.0258 258.798 83.5983 258.759 84.1454C258.687 85.1968 258.631 86.1668 258.593 87.0384C258.567 87.6664 258.554 88.2476 258.55 88.765C258.55 88.8205 258.545 88.8717 258.55 88.9272C258.543 89.2517 258.547 89.5509 258.556 89.8203Z" fill="#B5076B"/>
<path d="M282.793 58.8341C282.583 57.2191 282.209 55.6062 282.258 53.9697C282.266 53.6902 281.832 53.6907 281.824 53.9697C281.775 55.6066 282.149 57.2191 282.36 58.8341C282.574 60.4772 282.71 62.1294 282.847 63.7804C282.87 64.0568 283.304 64.0594 283.281 63.7804C283.145 62.129 283.008 60.4772 282.793 58.8341Z" fill="#B5076B"/>
<path d="M273.156 69.4283C276.644 69.4283 279.472 65.4277 279.472 60.4927C279.472 55.5577 276.644 51.5571 273.156 51.5571C269.667 51.5571 266.839 55.5577 266.839 60.4927C266.839 65.4277 269.667 69.4283 273.156 69.4283Z" fill="#8C0C5B"/>
<path d="M284.215 87.5386L280.159 87.0689C279.897 87.0388 279.709 86.8017 279.739 86.5393L280.649 78.6708C280.679 78.4089 280.917 78.2208 281.179 78.251L285.236 78.7207C285.498 78.7509 285.686 78.9879 285.655 79.2503L284.745 87.1188C284.714 87.3812 284.477 87.5688 284.215 87.5386Z" fill="#1A1816"/>
<path d="M284.517 87.5735L280.46 87.1038C280.198 87.0737 280.01 86.8362 280.04 86.5742L280.951 78.7057C280.981 78.4438 281.218 78.2557 281.48 78.2859L285.537 78.7556C285.799 78.7858 285.987 79.0232 285.957 79.2852L285.046 87.1537C285.016 87.4157 284.779 87.6037 284.517 87.5735Z" fill="#24201E"/>
<path d="M281.931 78.9167C281.912 79.0781 281.766 79.1935 281.605 79.1747C281.443 79.1559 281.328 79.0103 281.347 78.8489C281.366 78.6875 281.511 78.5721 281.673 78.5909C281.833 78.6097 281.949 78.7558 281.931 78.9167Z" fill="white"/>
<path d="M276.948 85.288C276.948 85.288 278.734 87.144 279.579 87.2962C280.424 87.4484 283.855 87.6334 283.892 87.2179C283.929 86.8025 281.574 86.5624 281.574 86.5624C281.574 86.5624 285.12 87.001 285.268 86.38C285.416 85.759 281.805 85.4082 281.805 85.4082C281.805 85.4082 286.006 85.8145 286.034 85.2512C286.062 84.688 282.064 84.3923 282.064 84.3923C282.064 84.3923 285.813 84.2445 285.739 83.6812C285.665 83.1179 282.101 83.4136 281.953 83.358C281.805 83.3025 279.381 82.0325 279.381 82.0325L276.948 85.288Z" fill="#FEBAA3"/>
<path d="M263.41 42.8701C258.276 44.9536 254.798 67.8624 255.721 70.8818C256.756 74.2672 275.989 86.5715 275.989 86.5715C278.111 85.2517 279.607 81.8719 279.607 81.8719C279.607 81.8719 263.225 68.9361 263.225 68.1314C263.225 67.3267 265.368 52.2671 265.368 52.2671L263.41 42.8701Z" fill="#B5076B"/>
<path d="M272.189 75.2506C269.275 73.0875 266.429 70.8361 263.645 68.5087C263.698 67.0987 263.818 65.6922 264.002 64.2936C264.039 64.0177 263.604 64.0203 263.568 64.2936C263.399 65.5776 263.287 66.8678 263.229 68.1614C263.048 68.0097 262.865 67.861 262.685 67.7083C262.473 67.5286 262.165 67.8343 262.378 68.0153C265.493 70.6542 268.692 73.1921 271.97 75.6254C272.194 75.792 272.411 75.4155 272.189 75.2506Z" fill="#B5076B"/>
<path d="M264.107 42.4748C264.107 42.4748 267.953 46.6719 264.001 61.4096C264.001 61.4096 271.331 52.3923 267.907 41.2005C267.907 41.2005 265.499 41.0828 264.107 42.4748Z" fill="#F1EBBB"/>
<path d="M276.324 41.311C276.324 41.311 280.364 45.7482 280.991 56.4227C280.991 56.4227 282.22 48.7676 279.856 42.4883C279.856 42.4883 278.526 41.325 276.324 41.311Z" fill="#F1EBBB"/>
<path d="M281.497 30.5441C281.178 32.8471 280.31 34.2497 279.129 35.2481C278.405 35.8612 277.752 36.2789 277.191 36.6637C275.776 37.6425 274.927 38.4253 274.927 41.6743C273.968 44.0883 270.276 44.4146 269.088 41.6743C269.14 37.3814 268.103 33.8324 267.509 32.1557C267.326 31.6405 267.183 31.3012 267.124 31.1704C267.105 31.1249 267.098 31.1052 267.098 31.1052C267.098 31.1052 267.111 30.4138 267.163 29.3957C267.17 29.2715 267.176 29.1412 267.183 29.0108C267.313 26.6296 267.62 22.8912 268.338 21.5735C270.974 16.7458 280.244 18.3898 280.969 22.2326C281.654 25.8922 281.784 28.5543 281.497 30.5441Z" fill="#FEBAA3"/>
<path d="M281.46 21.6648C281.015 22.0995 280.392 22.2937 279.787 22.4345C276.945 23.0953 273.906 22.8793 271.186 21.8231C271.372 22.1074 271.35 22.5119 271.133 22.7739C270.917 23.0358 270.524 23.1342 270.209 23.0048C270.457 24.0413 270.347 25.31 269.896 26.2756C269.445 27.2417 268.66 28.0472 267.706 28.5231C267.408 28.6718 267.063 28.7903 266.747 28.6871C266.232 28.5191 266.066 27.8876 265.98 27.3532C265.667 25.4071 265.384 23.3376 266.161 21.5262C266.925 19.7436 268.649 18.4889 270.515 17.9623C272.382 17.4358 274.378 17.5648 276.276 17.9636C277.385 18.1967 278.489 18.5261 279.456 19.1165C280.423 19.7069 281.1 20.5907 281.46 21.6648Z" fill="#1A0F24"/>
<path d="M278.203 26.697C278.95 26.177 279.92 26.2072 280.624 26.8155C280.756 26.9297 280.779 27.1588 280.679 27.3071C280.576 27.4588 280.382 27.4842 280.25 27.3696C279.961 27.1199 279.593 27.0071 279.234 27.0337C279.052 27.0473 278.873 27.0958 278.705 27.1789C278.558 27.2524 278.414 27.3806 278.248 27.2848C278.208 27.262 278.174 27.2284 278.147 27.1881C278.056 27.0512 278.062 26.7958 278.203 26.697Z" fill="#1A0F24"/>
<path d="M275.886 26.697C275.03 26.177 273.918 26.2072 273.111 26.8155C272.959 26.9297 272.933 27.1588 273.048 27.3071C273.165 27.4588 273.388 27.4842 273.54 27.3696C273.871 27.1199 274.293 27.0119 274.704 27.0394C274.912 27.0534 275.118 27.1011 275.31 27.182C275.48 27.2533 275.646 27.3792 275.835 27.2848C275.881 27.262 275.92 27.2284 275.951 27.1881C276.056 27.0512 276.048 26.7958 275.886 26.697Z" fill="#1A0F24"/>
<path d="M277.129 32.405C277.453 32.405 277.791 32.3341 278.117 32.1627C278.269 32.0831 278.327 31.8951 278.247 31.7433C278.167 31.5915 277.98 31.5329 277.827 31.613C277.041 32.0254 276.164 31.6016 275.913 31.2579C275.812 31.1201 275.618 31.089 275.479 31.1901C275.34 31.2915 275.31 31.4857 275.412 31.6243C275.706 32.0276 276.382 32.405 277.129 32.405Z" fill="#C16B5B"/>
<path d="M277.863 30.6373C277.897 30.6373 277.928 30.615 277.938 30.5813C278.085 30.0745 277.912 29.9021 277.742 29.847C277.569 29.7919 277.362 29.8365 277.126 29.9817C277.09 30.004 277.079 30.0521 277.101 30.0889C277.124 30.1252 277.172 30.1361 277.208 30.1143C277.403 29.994 277.566 29.9537 277.694 29.9953C277.847 30.0443 277.879 30.2275 277.789 30.5385C277.777 30.5796 277.8 30.6224 277.841 30.6347C277.848 30.6364 277.856 30.6373 277.863 30.6373Z" fill="#C16B5B"/>
<path d="M279.91 29.38C279.915 29.38 279.919 29.38 279.924 29.3796C280.01 29.3726 280.074 29.2969 280.067 29.2103C280.039 28.8617 279.819 28.2031 279.194 28.2031C278.565 28.2031 278.371 28.8425 278.357 29.181C278.353 29.2676 278.42 29.3402 278.506 29.3441C278.594 29.3498 278.666 29.2812 278.67 29.195C278.671 29.1674 278.708 28.5171 279.194 28.5171C279.69 28.5171 279.754 29.2291 279.754 29.2365C279.761 29.3179 279.83 29.38 279.91 29.38Z" fill="black"/>
<path d="M275.332 29.38C275.336 29.38 275.34 29.38 275.345 29.3796C275.431 29.3726 275.495 29.2969 275.488 29.2103C275.46 28.8617 275.24 28.2031 274.615 28.2031C273.986 28.2031 273.792 28.8425 273.778 29.181C273.774 29.2676 273.841 29.3402 273.927 29.3441C274.016 29.3498 274.087 29.2812 274.091 29.195C274.093 29.1674 274.129 28.5171 274.615 28.5171C275.111 28.5171 275.175 29.2291 275.175 29.2365C275.182 29.3179 275.251 29.38 275.332 29.38Z" fill="black"/>
<path d="M281.497 30.5442C281.178 32.8471 280.31 34.2497 279.129 35.2481C278.405 35.8613 277.753 36.2789 277.191 36.6638C274.164 36.6248 272.331 35.3329 272.083 35.1436C272.07 35.1436 272.063 35.1436 272.057 35.137C270.426 34.328 268.906 33.3234 267.509 32.1553C267.327 32.0053 267.151 31.8553 266.975 31.6987C266.759 31.5093 266.909 31.2356 267.124 31.1704C267.222 31.1376 267.34 31.1507 267.438 31.2356C268.86 32.5012 270.445 33.5714 272.135 34.439C272.194 33.7673 272.22 32.6512 271.965 31.3921C270.387 30.7856 268.821 30.1527 267.275 29.4871C267.229 29.4674 267.196 29.4351 267.163 29.3957C267.098 29.2978 267.098 29.1412 267.157 29.0432C267.163 29.0301 267.17 29.0235 267.183 29.0104C267.281 28.8735 267.451 28.8604 267.601 28.9256C269.088 29.565 270.595 30.1715 272.102 30.7458C273.042 30.4523 276.265 29.4801 277.504 29.4998C278.51 29.5134 280.408 30.1527 281.497 30.5442Z" fill="white"/>
<path d="M265.065 31.2757C265.861 32.2234 267.114 32.4805 267.867 31.8494C268.619 31.2184 268.585 29.9387 267.79 28.991C266.995 28.0433 265.741 27.7862 264.988 28.4172C264.236 29.0483 264.27 30.328 265.065 31.2757Z" fill="#FEBAA3"/>
<path d="M265.507 28.8811C265.845 28.7022 266.296 28.7105 266.712 28.9043C266.919 29.0005 267.07 29.1177 267.173 29.2624C267.309 29.454 267.347 29.6949 267.271 29.8909C267.204 30.0667 267.064 30.1804 266.94 30.2814C266.851 30.354 266.766 30.4231 266.718 30.5053C266.645 30.6317 266.663 30.8084 266.761 30.9169C266.859 31.0249 267.033 31.0599 267.166 30.9986C267.245 30.9623 267.336 30.9969 267.373 31.0743C267.409 31.1521 267.375 31.2444 267.297 31.2807C267.212 31.3201 267.12 31.3389 267.026 31.3389C266.842 31.3389 266.657 31.2641 266.532 31.1255C266.343 30.9177 266.309 30.591 266.45 30.3488C266.526 30.218 266.642 30.1235 266.744 30.0404C266.847 29.9569 266.944 29.8782 266.981 29.7798C267.019 29.681 266.995 29.5489 266.92 29.4426C266.889 29.3997 266.847 29.3608 266.802 29.3237C266.648 29.3223 266.455 29.37 266.357 29.4763C266.247 29.5966 266.195 29.771 266.222 29.9311C266.236 30.0155 266.178 30.0955 266.094 30.1095C266.085 30.1113 266.076 30.1117 266.068 30.1117C265.993 30.1117 265.928 30.0579 265.915 29.9814C265.873 29.7256 265.952 29.4584 266.128 29.2664C266.193 29.1951 266.275 29.147 266.36 29.1076C266.103 29.0385 265.85 29.0521 265.653 29.1562C265.41 29.2847 265.227 29.6158 265.352 29.8861C265.388 29.9639 265.354 30.0562 265.276 30.0925C265.198 30.1283 265.106 30.0947 265.07 30.0164C264.887 29.6228 265.088 29.1028 265.507 28.8811Z" fill="#C16B5B"/>
<path d="M281.901 22.6412L272.922 25.473L265.904 27.6915C265.904 27.6915 263.424 19.0017 271.233 17.3018C272.498 17.0232 273.624 16.934 274.616 16.9896C280.619 17.2795 281.901 22.6412 281.901 22.6412Z" fill="#45046A"/>
<path d="M281.901 22.6414L272.922 25.4731C272.637 24.4253 271.489 19.4034 274.616 16.9897C280.619 17.2797 281.901 22.6414 281.901 22.6414Z" fill="white"/>
<path d="M281.484 22.0142C281.484 22.0142 287.245 20.7744 287.663 22.4468C288.081 24.1191 274.807 24.881 274.807 24.881C274.807 24.881 277.149 23.1369 281.484 22.0142Z" fill="#45046A"/>
<path d="M37.698 168.161C58.093 168.161 74.6264 167.08 74.6264 165.747C74.6264 164.414 58.093 163.333 37.698 163.333C17.3029 163.333 0.769531 164.414 0.769531 165.747C0.769531 167.08 17.3029 168.161 37.698 168.161Z" fill="#FFCF8C"/>
<path d="M39.159 27.9987C42.8902 25.7636 44.7273 21.9689 43.2621 19.523C41.7969 17.0771 37.5844 16.9061 33.8532 19.1412C30.1219 21.3763 28.2849 25.171 29.7501 27.617C31.2152 30.0629 35.4277 30.2338 39.159 27.9987Z" fill="#5C2A9D"/>
<path d="M42.2408 31.8053C50.0831 27.3354 55.0782 21.3217 53.3977 18.3734C51.7172 15.4251 43.9975 16.6587 36.1553 21.1286C28.313 25.5986 23.3179 31.6122 24.9983 34.5605C26.6788 37.5088 34.3985 36.2753 42.2408 31.8053Z" fill="#5C2A9D"/>
<path d="M48.7074 27.1868C48.6295 27.2537 48.5569 27.3206 48.4786 27.3875C46.7175 28.898 44.5601 30.4195 42.1246 31.8076C34.5999 36.0939 27.3148 37.4816 25.8436 34.9066C25.8326 34.8843 25.8213 34.862 25.8103 34.8397C25.7154 34.6612 25.6542 34.4662 25.621 34.2598C25.2755 32.2533 27.6611 29.0537 31.6409 25.9325L31.6465 25.9268C32.3992 25.336 33.2074 24.7508 34.0654 24.1823C34.9348 23.6024 35.8489 23.0338 36.8132 22.4824C37.5658 22.0533 38.3124 21.6576 39.0541 21.2841C39.0541 21.2841 39.0598 21.2841 39.0655 21.2784C39.8124 20.9106 40.548 20.5651 41.2727 20.2585C41.8692 20.0022 42.4544 19.7678 43.0286 19.5619C48.0006 17.7224 52.0468 17.5331 53.0951 19.3777C54.0638 21.0777 52.2358 24.0988 48.7074 27.1868Z" fill="#6F43B5"/>
<path d="M48.8246 26.4395C48.8023 26.6905 48.7577 26.9411 48.7074 27.1865C48.4678 28.3069 47.9662 29.3828 47.5984 30.4918C47.4811 30.843 47.381 31.1999 47.3027 31.5677C46.9459 33.3288 46.9515 35.1013 47.091 36.9241C47.2529 39.0365 47.7545 41.06 47.325 43.1837C47.2918 43.3341 47.2581 43.4789 47.2249 43.6241C46.6953 45.6699 45.2516 47.5815 43.2228 48.161C42.1584 48.4676 41.027 48.395 39.9341 48.5625C36.456 49.103 33.619 52.024 30.1072 52.191C28.3347 52.2746 26.5399 51.5892 25.269 50.3459C24.5163 49.6103 23.9535 48.6963 23.4016 47.7989C22.6992 46.6561 21.9916 45.5024 21.5845 44.2315C20.6984 41.4501 21.4283 38.2173 23.4182 36.0827C24.0703 35.3917 24.8282 34.8118 25.6197 34.2599C25.7982 34.1375 25.9766 34.0146 26.1546 33.8921C27.7933 32.783 29.4656 31.7238 30.3854 30.0125C31.0654 28.736 31.2325 27.2923 31.6449 25.927C33.1611 24.7396 34.8999 23.575 36.812 22.4825C38.3225 21.624 39.8274 20.8771 41.271 20.2587C41.8675 20.0024 42.4527 19.768 43.0269 19.562C44.1417 19.8349 45.2009 20.3033 46.1372 20.9667C47.514 21.9367 48.484 23.4136 48.7792 25.0746C48.8636 25.5421 48.8745 25.9934 48.8246 26.4395Z" fill="#1A0F24"/>
<path d="M16.6226 149.237C16.6226 149.237 19.8462 155.689 21.6279 157.898C23.4095 160.107 21.8102 161.883 21.8102 161.883C21.8102 161.883 13.8215 155.371 12.1775 151.979L10.9858 152.402C10.9858 152.402 7.73508 149.637 7.76832 149.584C7.80156 149.531 9.62043 146.745 12.3341 145.481L16.6226 149.237Z" fill="#1A0F24"/>
<path d="M51.3373 81.3721C51.3373 81.3721 56.4488 113.803 53.2672 118.708C50.0856 123.612 16.6222 149.238 16.6222 149.238C16.6222 149.238 13.3802 147.734 12.3333 145.482C12.3333 145.482 41.6936 116.274 41.4758 112.786C41.258 109.298 34.545 81.9008 34.545 81.9008L51.3373 81.3721Z" fill="#FE906B"/>
<path d="M53.267 157.579C53.267 157.579 60.378 158.784 63.2128 158.65C66.0476 158.516 66.537 160.854 66.537 160.854C66.537 160.854 56.5658 163.46 52.8568 162.786L52.4951 163.997C52.4951 163.997 48.3444 164.99 48.3212 164.932C48.298 164.874 47.1225 161.76 47.7037 158.825L53.267 157.579Z" fill="#1A0F24"/>
<path d="M40.665 136.635C43.4884 144.29 46.0228 151.836 47.6269 158.798C47.6269 158.798 50.7197 159.292 53.2672 157.579L49.2503 134.152L40.2863 81.9004H23.9112C23.4874 94.9775 33.1188 116.198 40.665 136.635Z" fill="#FE9875"/>
<path d="M51.1897 80.7351C51.1897 80.7351 53.955 96.7468 55.2079 108.462C55.2079 108.462 50.7397 109.225 42.7837 109.335L38.5823 80.9437L51.1897 80.7351Z" fill="#F1EBBB"/>
<path d="M45.836 109.588C41.1959 111.035 37.269 111.679 34.3665 111.952C33.8968 111.995 33.4529 112.029 33.0387 112.055C30.3496 112.221 28.8342 112.059 28.8342 112.059C22.6232 96.6919 23.7672 81.3721 23.7672 81.3721H42.4213L45.836 109.588Z" fill="#F1EBBB"/>
<path d="M45.5399 104.149C44.9766 100.318 44.5064 96.4733 44.1316 92.619C44.0249 91.5205 43.9261 90.421 43.8343 89.3207C43.8115 89.0482 43.3943 89.1396 43.417 89.4103C43.4708 90.0571 43.5312 90.7031 43.5902 91.3495C43.2797 90.8671 42.9692 90.3843 42.6591 89.9019C42.597 89.8052 42.482 89.7528 42.3718 89.8087C42.2769 89.8573 42.2161 89.9985 42.2787 90.0961C42.7116 90.7691 43.1446 91.4422 43.5775 92.1152C43.6003 92.1506 43.6318 92.1773 43.6659 92.1974C43.944 95.1236 44.2755 98.045 44.663 100.959C44.8082 102.053 44.9617 103.147 45.1222 104.239C45.1624 104.511 45.5796 104.42 45.5399 104.149Z" fill="#F1EBBB"/>
<path d="M34.3663 111.953C33.8966 111.995 33.4527 112.03 33.0386 112.055C32.3214 110.164 31.6597 108.251 31.0666 106.318C28.5738 98.2335 27.1779 89.82 26.9045 81.3721H28.1807C28.2489 83.5194 28.3897 85.6706 28.6075 87.8175C29.4446 96.0691 31.3995 104.205 34.3663 111.953Z" fill="white"/>
<path d="M76.2424 79.2623C76.4453 78.674 74.2351 78.1143 74.2351 78.1143C74.2351 78.1143 79.0728 79.1599 79.2522 78.4042C79.4315 77.6485 74.7043 76.9059 74.7043 76.9059C74.7043 76.9059 80.4924 77.8274 80.6354 77.0266C80.7784 76.2259 74.8753 75.4916 74.8753 75.4916C74.8753 75.4916 79.4962 75.5795 79.536 74.7673C79.5906 73.6508 69.6641 74.1918 69.6641 74.1918L69.27 78.0609C69.27 78.06 76.0395 79.8505 76.2424 79.2623Z" fill="#FE9875"/>
<path d="M69.6646 74.1908C69.6646 74.1908 73.458 71.2738 74.2845 71.7164C75.1111 72.1589 72.5212 74.7445 72.5212 74.7445L69.6646 74.1908Z" fill="#FE9875"/>
<path d="M46.0752 44.8306C49.4978 46.5357 52.2206 62.9729 54.102 65.9293C55.9834 68.8857 69.6645 74.1905 69.6645 74.1905C69.6645 74.1905 70.5711 77.7631 69.3383 78.0526C69.3383 78.0526 52.0186 74.7114 48.9004 69.4104C47.2621 66.6255 45.0505 55.362 45.0505 55.362L46.0752 44.8306Z" fill="#FE9875"/>
<path d="M15.9062 163.603C15.9062 164.949 14.8146 166.041 13.4676 166.041C12.1206 166.041 11.0291 164.95 11.0291 163.603C11.0291 162.256 12.1206 161.164 13.4676 161.164C14.8146 161.164 15.9062 162.256 15.9062 163.603Z" fill="#45046A"/>
<path d="M35.937 163.603C35.937 164.949 34.8454 166.041 33.4984 166.041C32.1518 166.041 31.0598 164.95 31.0598 163.603C31.0598 162.256 32.1514 161.164 33.4984 161.164C34.8454 161.164 35.937 162.256 35.937 163.603Z" fill="#45046A"/>
<path d="M39.4881 161.9H10.8165C9.1896 161.9 7.87061 160.581 7.87061 158.954V114.049C7.87061 112.422 9.1896 111.103 10.8165 111.103H39.4881C41.1149 111.103 42.4339 112.422 42.4339 114.049V158.954C42.4339 160.581 41.1149 161.9 39.4881 161.9Z" fill="#6F43B5"/>
<path d="M33.9369 126.269H32.3984V94.6764C32.3984 93.8415 31.7192 93.1624 30.8843 93.1624H16.7943C15.9595 93.1624 15.2807 93.8415 15.2807 94.6764V126.269H13.7422V94.6764C13.7422 92.9936 15.1115 91.6243 16.7943 91.6243H30.8843C32.5672 91.6243 33.9365 92.9936 33.9365 94.6764L33.9369 126.269Z" fill="#45046A"/>
<path d="M35.2949 161.9H6.62337C4.99649 161.9 3.67749 160.581 3.67749 158.954V114.049C3.67749 112.422 4.99649 111.103 6.62337 111.103H35.2949C36.9218 111.103 38.2408 112.422 38.2408 114.049V158.954C38.2408 160.581 36.9218 161.9 35.2949 161.9Z" fill="#5C2A9D"/>
<path d="M32.4099 132.522H9.50892C8.21092 132.522 7.15869 131.47 7.15869 130.172V118.222C7.15869 116.924 8.21092 115.872 9.50892 115.872H32.4099C33.7079 115.872 34.7601 116.924 34.7601 118.222V130.172C34.7601 131.47 33.7079 132.522 32.4099 132.522Z" fill="#6F43B5"/>
<path d="M46.0742 44.8254C48.5963 45.6695 52.8652 59.6379 52.8652 59.6379C52.8652 59.6379 50.9579 61.5451 46.5439 62.1989L44.2554 55.7688L46.0742 44.8254Z" fill="#B5076B"/>
<path d="M51.4829 82.0053C31.4504 85.3006 23.9121 81.903 23.9121 81.903C23.9165 81.8304 24.2196 80.6137 24.6805 78.7783C24.7785 78.3855 24.8852 77.967 24.9963 77.5318C25.026 77.4125 25.0562 77.297 25.0859 77.1732C25.2053 76.7035 25.3291 76.2041 25.4572 75.6964C25.5595 75.291 25.6706 74.8768 25.7773 74.45C27.395 68.0728 29.4868 59.9113 29.4868 59.9113C29.4868 59.9113 29.7431 45.1333 29.7772 44.9116L29.7899 44.8648V44.8263L32.0907 44.0706L32.4961 43.9342L35.2237 43.042H40.6021L43.321 43.9298L43.9188 44.1218L46.0744 44.8263C49.3527 52.4928 46.4374 60.1548 46.4374 60.1548L49.6986 74.2711L49.989 75.5175L50.1897 76.3882L50.4119 77.353L50.6935 78.5994L51.4829 82.0053Z" fill="#B5076B"/>
<path d="M51.4832 82.0043C31.4507 85.2996 23.9124 81.902 23.9124 81.902C23.9167 81.8294 24.2198 80.6127 24.6807 78.7772C24.7787 78.3845 24.8854 77.9659 24.9965 77.5308C25.0262 77.4114 25.0564 77.296 25.0862 77.1722C25.5003 77.0484 25.9315 77.0012 26.3242 77.0182C27.4171 77.0611 28.4799 77.6117 29.1459 78.4824C30.9814 77.0996 33.8241 77.296 35.4505 78.922C36.3339 77.8422 37.6787 77.1547 39.0703 77.0738C40.4575 76.9885 41.8749 77.5094 42.8821 78.4698C44.2479 77.3939 45.8359 76.5402 47.5563 76.2757C48.4271 76.1431 49.3363 76.1733 50.19 76.3867L50.4121 77.3515L50.6938 78.5979L51.4832 82.0043Z" fill="#8C0C5B"/>
<path d="M29.7893 44.8311C25.2546 47.0212 18.0587 62.1363 17.275 66.2849C16.2106 71.9186 20.4418 90.8084 20.4418 90.8084C20.4418 90.8084 23.7659 91.317 25.6377 90.336C25.6377 90.336 24.3603 69.2911 24.4897 67.4998C24.669 65.0232 30.4287 57.9839 30.4287 57.9839L29.7893 44.8311Z" fill="#FE9875"/>
<path d="M20.4417 90.8076C20.4417 90.8076 19.0794 94.5402 19.7332 95.7665C20.387 96.9928 26.1721 97.5845 27.1307 96.475C28.1659 95.2762 25.6377 90.3357 25.6377 90.3357L20.4417 90.8076Z" fill="#FE9875"/>
<path d="M29.7892 44.8306C25.8908 46.3962 18.5344 59.6382 18.5344 59.6382C18.5344 59.6382 21.8039 63.0713 27.1989 64.5425L31.7218 57.8399L29.7892 44.8306Z" fill="#B5076B"/>
<path d="M32.7623 57.8945C32.3443 57.9614 31.9367 58.0682 31.5382 58.2037C31.8203 57.8211 32.1107 57.4441 32.4134 57.0772C32.587 56.8668 32.2865 56.5633 32.1116 56.7754C30.9715 58.1587 29.9682 59.6478 29.1215 61.2279C28.9917 61.4702 29.3603 61.6858 29.4902 61.4435C29.9757 60.5373 30.5184 59.664 31.1035 58.8204C31.1066 58.8191 31.1097 58.8191 31.1123 58.8177C31.6743 58.572 32.2703 58.4036 32.8761 58.3065C32.9898 58.2881 33.0532 58.1464 33.0252 58.0441C32.9919 57.9221 32.8769 57.8762 32.7623 57.8945Z" fill="#B5076B"/>
<path d="M47.7681 54.2701C47.7528 53.9968 47.326 53.995 47.3413 54.2701C47.4392 56.0124 47.1388 57.76 46.4452 59.3633C46.3372 59.613 46.705 59.8304 46.8138 59.5789C47.5376 57.9052 47.8704 56.0925 47.7681 54.2701Z" fill="#B5076B"/>
<path d="M46.8266 33.3754C46.8095 33.4865 46.7881 33.5932 46.7667 33.6955C46.4124 35.5222 45.644 36.6834 44.6368 37.5414C43.8855 38.1817 43.2111 38.5914 42.6562 38.9929C42.6391 39.0056 42.6177 39.0187 42.6006 39.0314C41.4054 39.8851 40.6969 40.6963 40.6969 43.5648C39.7921 45.8315 36.3345 46.1473 35.2158 43.5648C35.2543 40.3504 34.6482 37.5803 34.1059 35.7916C33.9733 35.3219 33.8369 34.9253 33.7219 34.6008C33.5041 33.9946 33.3506 33.6531 33.3506 33.6531C33.3506 33.6531 33.4958 26.5884 34.5117 24.7149C36.9874 20.1858 45.6825 21.7309 46.3613 25.3381C47.0356 28.9233 47.1336 31.4887 46.8266 33.3754Z" fill="#FE9875"/>
<path d="M47.6208 27.599C47.448 27.8221 47.1471 27.6992 46.935 27.6214C45.77 27.1753 44.7112 26.4454 43.875 25.52C43.6354 25.258 43.418 24.9794 43.2173 24.6895C43.1447 24.5779 42.6374 23.9093 42.6933 23.8034C41.5952 25.8156 39.4886 27.2479 37.2087 27.5269C36.9805 29.3274 35.9602 31.005 34.4719 32.0419C34.1041 32.2982 33.6414 32.5269 33.2176 32.3708C32.7046 32.1814 32.5267 31.5517 32.4873 31.0054C32.3478 29.1551 32.9111 27.3323 33.5128 25.5821C33.6746 25.1084 33.8417 24.6291 34.0647 24.183C34.9342 23.6031 35.8482 23.0346 36.8125 22.4831C37.5652 22.0541 38.3117 21.6583 39.0534 21.2848C39.0534 21.2848 39.0591 21.2848 39.0648 21.2791C39.834 21.1453 40.6143 21.0618 41.4001 21.0395C42.6597 20.9949 43.9752 21.1173 45.0624 21.7585C46.0547 22.3436 46.7737 23.3246 47.1804 24.4004C47.4537 25.1137 47.5928 25.8663 47.654 26.6242C47.6763 26.8801 47.7935 27.3817 47.6208 27.599Z" fill="#1A0F24"/>
<path d="M43.731 29.566C44.4233 29.0841 45.3224 29.112 45.9749 29.6758C46.0969 29.7816 46.1184 29.9937 46.0257 30.1315C45.9308 30.2718 45.751 30.2955 45.6286 30.1896C45.3609 29.9583 45.0198 29.8533 44.6865 29.8782C44.5182 29.8905 44.3515 29.9355 44.1972 30.0125C44.0603 30.0807 43.9269 30.1993 43.773 30.1109C43.7362 30.0899 43.7047 30.0589 43.6798 30.0217C43.5936 29.894 43.5993 29.6574 43.731 29.566Z" fill="black"/>
<path d="M41.5829 29.566C40.7891 29.0841 39.7583 29.112 39.0105 29.6758C38.8705 29.7816 38.846 29.9937 38.9523 30.1315C39.0612 30.2718 39.2672 30.2955 39.408 30.1896C39.715 29.9583 40.106 29.8581 40.4869 29.8835C40.6798 29.8962 40.8705 29.9408 41.0485 30.0156C41.2059 30.0816 41.3603 30.1984 41.5352 30.1109C41.5772 30.0899 41.6135 30.0589 41.6419 30.0217C41.7399 29.894 41.7333 29.6574 41.5829 29.566Z" fill="black"/>
<path d="M43.4149 33.218C43.4459 33.218 43.4748 33.1975 43.484 33.166C43.6204 32.6963 43.4608 32.5362 43.3025 32.485C43.1424 32.4339 42.95 32.4754 42.7318 32.6097C42.6981 32.6302 42.6876 32.6748 42.7086 32.709C42.73 32.7426 42.7746 32.7527 42.8079 32.7321C42.988 32.6206 43.1398 32.5834 43.2583 32.6219C43.4 32.6674 43.4293 32.8371 43.3458 33.1257C43.3348 33.1638 43.3567 33.2036 43.3948 33.215C43.4013 33.2171 43.4088 33.218 43.4149 33.218Z" fill="#C16B5B"/>
<path d="M41.5628 33.9179C41.7277 33.6127 42.2481 33.8777 42.8429 33.8777C43.4381 33.8777 43.9581 33.6127 44.123 33.9179C44.3316 34.3037 43.8177 35.2632 42.8429 35.2632C41.8681 35.2632 41.3542 34.3037 41.5628 33.9179Z" fill="#8E4136"/>
<path d="M41.6465 34.5563C41.8328 34.5326 42.0318 34.5173 42.2417 34.5173C42.9344 34.5173 43.5275 34.6595 43.8043 34.8637C43.5769 35.0898 43.2541 35.263 42.8435 35.263C42.2574 35.2634 41.8424 34.9162 41.6465 34.5563Z" fill="#C16B5B"/>
<path d="M42.8433 34.2121C42.312 34.2121 41.8606 34.0861 41.6953 33.7992C41.9306 33.7048 42.3622 33.8775 42.8433 33.8775C43.3244 33.8775 43.756 33.7048 43.9913 33.7992C43.826 34.0861 43.3747 34.2121 42.8433 34.2121Z" fill="white"/>
<path d="M39.7811 32.0974H39.7802C39.7033 32.0969 39.6412 32.0344 39.6416 31.957C39.6438 31.5905 39.8025 30.8982 40.3886 30.8982C40.9737 30.8982 41.1382 31.5901 41.1434 31.9561C41.1447 32.0326 41.0831 32.0961 41.0061 32.0974C40.9217 32.1065 40.8657 32.037 40.8644 31.96C40.8644 31.9522 40.8456 31.1768 40.3881 31.1768C39.9298 31.1768 39.9202 31.9509 39.9202 31.9587C39.9197 32.0357 39.8576 32.0974 39.7811 32.0974Z" fill="#1A0F24"/>
<path d="M44.0394 32.0974H44.0385C43.9616 32.0969 43.8995 32.0344 43.8999 31.957C43.9021 31.5905 44.0608 30.8982 44.6469 30.8982C45.232 30.8982 45.3965 31.5901 45.4017 31.9561C45.4026 32.0326 45.3414 32.0961 45.2644 32.0974C45.18 32.1065 45.1244 32.037 45.1227 31.96C45.1227 31.9522 45.1039 31.1768 44.6464 31.1768C44.1881 31.1768 44.1785 31.9509 44.1785 31.9587C44.178 32.0357 44.1155 32.0974 44.0394 32.0974Z" fill="#1A0F24"/>
<path d="M43.117 32.0782C42.0158 32.0782 39.6765 32.8462 38.6952 33.186C38.6554 33.158 38.6121 33.1317 38.5561 33.1169C37.0421 32.7145 35.5276 32.3104 34.0358 31.8307C33.5115 31.6623 33.2871 32.4862 33.8088 32.6537C35.2883 33.1295 36.7901 33.5306 38.2919 33.9299C38.3309 34.5019 38.3654 35.3962 38.2836 36.1734C36.6436 35.2301 35.0421 34.2216 33.4861 33.1448C33.0335 32.8313 32.6062 33.5713 33.0553 33.8822C34.7084 35.0267 36.4119 36.0964 38.1599 37.09C38.3895 37.39 39.6866 38.9015 42.6006 39.0322C42.6176 39.0195 42.639 39.0064 42.6561 38.9937C43.2111 38.5927 43.8854 38.1829 44.6368 37.5422C45.644 36.6842 46.4124 35.5231 46.7666 33.6963C46.0922 33.2393 44.2524 32.0782 43.117 32.0782Z" fill="white"/>
<path d="M31.4433 33.8175C32.189 34.7066 33.3654 34.9475 34.0713 34.3558C34.7771 33.7641 34.7447 32.5636 33.9991 31.6745C33.2534 30.7854 32.077 30.5445 31.3712 31.1362C30.6657 31.7279 30.6981 32.9284 31.4433 33.8175Z" fill="#FE9875"/>
<path d="M31.858 31.571C32.1751 31.4035 32.598 31.411 32.9881 31.5929C33.1827 31.683 33.324 31.7932 33.4202 31.9288C33.5474 32.1085 33.5829 32.3346 33.5124 32.5178C33.4495 32.6827 33.3183 32.7894 33.2019 32.8839C33.118 32.9521 33.0388 33.0168 32.9938 33.0938C32.9251 33.2123 32.9422 33.3781 33.0344 33.4795C33.1263 33.581 33.2898 33.6134 33.4145 33.5561C33.488 33.5224 33.5741 33.5543 33.6078 33.6274C33.6415 33.7004 33.61 33.787 33.5365 33.8207C33.4565 33.8578 33.3699 33.8753 33.2829 33.8753C33.1097 33.8753 32.9365 33.8049 32.8188 33.6755C32.6417 33.4804 32.6098 33.1743 32.7423 32.9469C32.8136 32.8244 32.9225 32.7356 33.0183 32.6578C33.1145 32.5795 33.205 32.5056 33.2404 32.4129C33.2759 32.3202 33.2531 32.1964 33.1823 32.0963C33.1538 32.056 33.1149 32.0197 33.0716 31.9847C32.9269 31.9834 32.7458 32.028 32.6544 32.1277C32.5512 32.2406 32.5026 32.4041 32.5276 32.5546C32.5407 32.6342 32.4869 32.709 32.4073 32.7216C32.3994 32.723 32.3916 32.7238 32.3833 32.7238C32.3133 32.7238 32.2516 32.6731 32.2398 32.6018C32.2 32.3617 32.2744 32.1111 32.4388 31.9309C32.5 31.864 32.5766 31.819 32.657 31.7822C32.4161 31.7171 32.1781 31.7302 31.9936 31.8277C31.7657 31.948 31.5934 32.2589 31.7106 32.5122C31.7443 32.5852 31.7124 32.6718 31.6394 32.7055C31.5663 32.7391 31.4802 32.7076 31.446 32.6342C31.2764 32.2664 31.4649 31.7792 31.858 31.571Z" fill="#C16B5B"/>
<path d="M194.931 168.375C215.326 168.375 231.859 167.294 231.859 165.961C231.859 164.628 215.326 163.547 194.931 163.547C174.536 163.547 158.002 164.628 158.002 165.961C158.002 167.294 174.536 168.375 194.931 168.375Z" fill="#FFCF8C"/>
<path d="M183.283 159.801C183.283 159.801 176.67 162.504 173.902 162.987C171.133 163.47 171.166 165.837 171.166 165.837C171.166 165.837 181.367 166.199 184.806 164.744L185.418 165.837C185.418 165.837 189.644 165.898 189.654 165.837C189.664 165.776 190.127 162.513 188.93 159.801H183.283Z" fill="#1A0F24"/>
<path d="M205.957 159.801C205.957 159.801 212.569 162.504 215.338 162.987C218.107 163.47 218.074 165.837 218.074 165.837C218.074 165.837 207.873 166.199 204.433 164.744L203.822 165.837C203.822 165.837 199.595 165.898 199.585 165.837C199.575 165.776 199.112 162.513 200.309 159.801H205.957Z" fill="#1A0F24"/>
<path d="M183.155 159.856C183.155 159.856 183.56 159.997 184.98 160.047C185.12 160.05 185.272 160.054 185.433 160.054C186.287 160.05 187.431 160.071 188.917 159.801C188.917 159.801 191.353 127.97 195.991 97.9651C196.261 96.2363 196.535 94.515 196.816 92.8037V92.8002C197.133 90.8855 197.456 88.9845 197.793 87.1083C197.926 86.3425 198.064 85.5798 198.204 84.821H183.592C183.592 84.821 183.286 87.3366 182.98 93.2108C182.45 103.512 181.999 124.324 183.155 159.856Z" fill="#F08E75"/>
<path d="M195.811 84.8215C195.92 85.6052 196.026 86.392 196.131 87.1862C196.373 89.0379 196.602 90.914 196.816 92.8007C197.031 94.6663 197.231 96.5425 197.417 98.4257C200.414 128.508 200.266 159.868 200.266 159.868C204.827 160.698 206.099 159.868 206.099 159.868C210.304 124.464 210.901 103.689 210.782 93.2857C210.715 87.383 210.42 84.822 210.42 84.822H195.811V84.8215Z" fill="#F08E75"/>
<path d="M197.387 84.4402L197.067 95.4745V95.5043L196.17 126.755L196.132 128.04L196.076 129.999C188.777 130.925 181.255 129.999 181.255 129.999C181.243 129.333 181.23 128.667 181.226 127.997C181.217 127.57 181.213 127.143 181.213 126.716C181.051 105.706 183.215 84.4402 183.215 84.4402H197.387Z" fill="#45046A"/>
<path d="M213.049 126.141C213.049 126.572 213.04 126.999 213.032 127.417C213.019 128.108 212.998 128.787 212.972 129.453C212.972 129.453 211.866 129.671 209.954 129.858C209.561 129.901 209.134 129.94 208.673 129.974C206.052 130.178 202.398 130.277 198.202 129.888L198.138 127.886L198.095 126.606L197.067 95.5049V95.4747L196.704 84.4403L206.748 84.244L208.029 84.2182L210.517 84.1714C210.517 84.1714 213.253 108.789 213.049 126.141Z" fill="#45046A"/>
<path d="M181.213 126.717C181.213 127.144 181.218 127.571 181.226 127.998C186.186 128.364 191.168 128.382 196.132 128.04L196.171 126.756C191.189 127.101 186.19 127.084 181.213 126.717Z" fill="#3C035C"/>
<path d="M209.962 126.478C209.945 115.576 209.557 104.674 208.797 93.7974C208.575 90.6001 208.314 87.4115 208.028 84.2185C208.011 83.9968 207.99 83.7702 207.968 83.5485C207.892 82.7333 206.611 82.7246 206.688 83.5485C206.709 83.779 206.731 84.0138 206.748 84.2443C207.815 96.0856 208.443 107.965 208.626 119.853C208.66 122.094 208.677 124.339 208.682 126.58C205.16 126.832 201.621 126.841 198.096 126.606L198.139 127.887C201.652 128.117 205.169 128.1 208.678 127.848C208.682 128.557 208.682 129.266 208.673 129.974C209.134 129.94 209.561 129.901 209.954 129.859C209.958 129.155 209.963 128.454 209.963 127.75C210.987 127.66 212.012 127.549 213.032 127.417C213.041 126.999 213.049 126.572 213.049 126.141C212.024 126.277 210.991 126.388 209.962 126.478Z" fill="#3C035C"/>
<path d="M163.492 81.3579C163.098 80.8664 165.013 79.5806 165.013 79.5806C165.013 79.5806 160.761 82.2238 160.333 81.5652C159.904 80.9061 164.154 78.5892 164.154 78.5892C164.154 78.5892 158.955 81.4379 158.546 80.7238C158.137 80.0096 163.51 77.2999 163.51 77.2999C163.51 77.2999 159.138 78.9574 158.823 78.1969C158.391 77.1521 168.031 74.2871 168.031 74.2871L169.723 77.8383C169.723 77.8383 163.885 81.8495 163.492 81.3579Z" fill="#F08E75"/>
<path d="M168.031 74.2878C168.031 74.2878 163.424 72.8008 162.787 73.5041C162.151 74.2073 165.498 75.7883 165.498 75.7883L168.031 74.2878Z" fill="#F08E75"/>
<path d="M188.704 42.7002C183.726 44.118 182.563 63.5173 181.909 64.6797C181.256 65.8421 168.027 74.2971 168.027 74.2971L169.724 77.8382C169.724 77.8382 185.615 70.2378 186.378 69.2568C187.141 68.2759 189.902 56.4329 189.902 56.4329L188.704 42.7002Z" fill="#F08E75"/>
<path d="M182.431 84.8223C190.667 87.9571 210.981 84.9601 210.981 84.9601C210.862 83.2103 205.986 59.7539 205.986 59.7539L205.361 42.6997L201.067 41.2906L200.948 41.2521L199.802 40.876H194.3L192.997 41.2976L192.881 41.3361L188.704 42.6992C185.784 46.8731 188.56 58.9838 188.56 58.9838L182.431 84.8223Z" fill="#F1EBBB"/>
<path d="M202.86 69.8255C202.757 68.842 200.38 45.6856 203.687 41.9447C204.035 41.5506 204.442 41.3464 204.895 41.3376C204.904 41.3376 204.914 41.3376 204.922 41.3376C209.606 41.3376 211.682 64.7144 212.051 69.4092L211.2 69.4757C210.369 58.9145 207.933 42.1909 204.927 42.1909C204.922 42.1909 204.917 42.1913 204.912 42.1913C204.704 42.1948 204.512 42.2993 204.326 42.5101C201.786 45.3834 203.019 63.1383 203.709 69.7372L202.86 69.8255Z" fill="#6F43B5"/>
<path d="M200.722 68.7919C201.232 67.9911 212.597 67.7685 213.076 67.9732C213.554 68.1779 217.774 79.765 217.339 80.6248C216.904 81.4846 200.461 82.4673 199.765 82.3444C199.069 82.2215 199.939 70.0204 200.722 68.7919Z" fill="#6F43B5"/>
<path d="M202.299 69.0221C202.299 69.0221 201.614 74.6987 202.038 74.8622C202.462 75.0254 214.439 74.1708 214.859 73.7313C215.28 73.2918 213.456 68.4676 213.13 68.3534C212.804 68.2388 203.082 68.3858 202.299 69.0221Z" fill="#5C2A9D"/>
<path d="M203.764 163.575C203.764 165.056 202.564 166.256 201.083 166.256C199.603 166.256 198.403 165.056 198.403 163.575C198.403 162.095 199.603 160.895 201.083 160.895C202.564 160.895 203.764 162.095 203.764 163.575Z" fill="#8C0C5B"/>
<path d="M225.786 163.575C225.786 165.056 224.586 166.256 223.105 166.256C221.624 166.256 220.424 165.056 220.424 163.575C220.424 162.095 221.624 160.895 223.105 160.895C224.586 160.895 225.786 162.095 225.786 163.575Z" fill="#8C0C5B"/>
<path d="M229.69 161.703H198.169C196.38 161.703 194.93 160.254 194.93 158.465V109.096C194.93 107.307 196.38 105.857 198.169 105.857H229.69C231.479 105.857 232.929 107.307 232.929 109.096V158.465C232.929 160.254 231.479 161.703 229.69 161.703Z" fill="#8C0C5B"/>
<path d="M223.587 122.531H221.896V87.7983C221.896 86.8803 221.149 86.1338 220.231 86.1338H204.741C203.823 86.1338 203.077 86.8803 203.077 87.7983V122.531H201.385V87.7983C201.385 85.9479 202.891 84.4426 204.741 84.4426H220.231C222.081 84.4426 223.587 85.9479 223.587 87.7983L223.587 122.531Z" fill="#8C0C5B"/>
<path d="M225.08 161.703H193.559C191.77 161.703 190.321 160.254 190.321 158.465V109.096C190.321 107.307 191.77 105.857 193.559 105.857H225.08C226.869 105.857 228.319 107.307 228.319 109.096V158.465C228.319 160.254 226.869 161.703 225.08 161.703Z" fill="#B5076B"/>
<path d="M197.629 155.659C196.854 155.659 196.225 155.031 196.225 154.256V113.307C196.225 112.532 196.854 111.903 197.629 111.903C198.404 111.903 199.032 112.532 199.032 113.307V154.256C199.032 155.031 198.404 155.659 197.629 155.659Z" fill="#8C0C5B"/>
<path d="M203.53 155.659C202.755 155.659 202.127 155.031 202.127 154.256V113.307C202.127 112.532 202.755 111.903 203.53 111.903C204.305 111.903 204.934 112.532 204.934 113.307V154.256C204.934 155.031 204.305 155.659 203.53 155.659Z" fill="#8C0C5B"/>
<path d="M209.431 155.659C208.657 155.659 208.028 155.031 208.028 154.256V113.307C208.028 112.532 208.657 111.903 209.431 111.903C210.206 111.903 210.835 112.532 210.835 113.307V154.256C210.835 155.031 210.206 155.659 209.431 155.659Z" fill="#8C0C5B"/>
<path d="M215.333 155.659C214.558 155.659 213.929 155.031 213.929 154.256V113.307C213.929 112.532 214.558 111.903 215.333 111.903C216.108 111.903 216.736 112.532 216.736 113.307V154.256C216.736 155.031 216.108 155.659 215.333 155.659Z" fill="#8C0C5B"/>
<path d="M221.234 155.659C220.459 155.659 219.83 155.031 219.83 154.256V113.307C219.83 112.532 220.459 111.903 221.234 111.903C222.009 111.903 222.637 112.532 222.637 113.307V154.256C222.637 155.031 222.009 155.659 221.234 155.659Z" fill="#8C0C5B"/>
<path d="M205.361 42.696C209.377 43.9175 223.15 59.1328 223.397 62.502C223.685 66.4393 215.846 80.9771 214.838 82.9386L211.051 81.8304C211.051 81.8304 216.202 63.723 216.074 63.3439C215.947 62.9647 207.416 54.6309 205.634 52.7014C202.242 49.0291 205.361 42.696 205.361 42.696Z" fill="#F08E75"/>
<path d="M219.535 63.5214C218.593 63.0552 217.502 62.9538 216.492 63.252C216.257 63.3216 216.357 63.6916 216.594 63.6216C217.503 63.3531 218.492 63.4313 219.342 63.852C219.562 63.9609 219.757 63.6308 219.535 63.5214Z" fill="#FCDDD4"/>
<path d="M211.051 81.8306C211.051 81.8306 209.653 82.937 209.476 83.2095C209.299 83.4819 208.672 86.9286 209.081 87.2828C209.49 87.637 214.408 86.779 214.667 86.4925C214.926 86.2065 214.839 82.9383 214.839 82.9383L211.051 81.8306Z" fill="#F08E75"/>
<path d="M196.492 17.4493C196.95 17.4795 197.404 17.5403 197.848 17.6317C200.254 18.1263 202.558 19.5328 203.895 21.674C204.766 23.0691 205.117 24.6632 205.448 26.2656C205.985 28.8607 206.321 31.4934 206.608 34.1279C206.754 35.4636 206.886 36.8 207.025 38.1361C207.093 38.7851 207.191 39.4367 207.236 40.0875C207.263 40.4728 207.155 41.1585 207.441 41.4646C206.705 40.6766 205.518 40.5497 204.46 40.6709C203.402 40.792 202.353 41.1113 201.292 41.026C199.336 40.869 197.677 39.3742 195.726 39.1586C192.529 38.8048 189.793 41.9225 186.578 41.8919C186.712 38.1864 186.124 34.4949 186.003 30.7889C185.923 28.3503 185.948 25.823 186.678 23.4762C187.976 19.3028 192.412 17.1782 196.492 17.4493Z" fill="#100303"/>
<path d="M188.065 30.9271C188.072 30.9691 188.079 31.0115 188.086 31.0535C188.426 32.9931 189.21 34.2049 190.25 35.087C191.002 35.7299 191.677 36.141 192.232 36.5381C192.284 36.5731 192.334 36.612 192.383 36.647C193.517 37.4727 194.188 38.3228 194.188 41.1091C195.091 43.3719 198.549 43.6881 199.662 41.1091C199.624 37.8978 200.235 35.1259 200.773 33.3372C200.906 32.8702 201.044 32.4731 201.159 32.1534C201.377 31.542 201.529 31.2048 201.529 31.2048C201.529 31.2048 201.381 24.1428 200.369 22.2736C197.896 17.745 189.207 19.2905 188.529 22.8955C187.854 26.479 187.759 29.0435 188.065 30.9271Z" fill="#F08E75"/>
<path d="M187.419 24.9279C189.426 24.6804 191.294 23.4795 192.352 21.7564C192.894 22.984 193.849 24.0253 195.025 24.6725C196.201 25.3198 197.591 25.5695 198.918 25.3714C198.947 26.3711 199.318 27.3582 199.957 28.1283C200.595 28.8985 201.497 29.4464 202.474 29.659C202.321 27.5357 201.847 25.412 201.147 23.4016C200.725 22.192 200.176 20.9718 199.199 20.1426C198.319 19.3952 197.16 19.0348 196.008 18.9465C194.857 18.8582 193.701 19.0235 192.564 19.2233C191.571 19.3978 190.563 19.6069 189.69 20.1098C188.05 21.054 187.125 23.0596 187.419 24.9279Z" fill="#100303"/>
<path d="M195.047 29.2723C195.047 29.5762 194.8 29.8229 194.496 29.8229C194.192 29.8229 193.946 29.5762 193.946 29.2723C193.946 28.9683 194.192 28.7217 194.496 28.7217C194.801 28.7221 195.047 28.9683 195.047 29.2723Z" fill="black"/>
<path d="M194.496 29.122C194.496 29.2335 194.406 29.3236 194.295 29.3236C194.183 29.3236 194.093 29.2335 194.093 29.122C194.093 29.0105 194.184 28.9204 194.295 28.9204C194.406 28.9204 194.496 29.0105 194.496 29.122Z" fill="white"/>
<path d="M190.788 29.2723C190.788 29.5762 190.542 29.8229 190.238 29.8229C189.934 29.8229 189.687 29.5762 189.687 29.2723C189.687 28.9683 189.934 28.7217 190.238 28.7217C190.542 28.7221 190.788 28.9683 190.788 29.2723Z" fill="black"/>
<path d="M190.237 29.122C190.237 29.2335 190.147 29.3236 190.036 29.3236C189.924 29.3236 189.834 29.2335 189.834 29.122C189.834 29.0105 189.924 28.9204 190.036 28.9204C190.147 28.9204 190.237 29.0105 190.237 29.122Z" fill="white"/>
<path d="M191.157 27.1174C190.465 26.6359 189.567 26.6639 188.915 27.2272C188.793 27.3326 188.772 27.5451 188.864 27.6825C188.959 27.8228 189.139 27.8465 189.261 27.7406C189.529 27.5093 189.87 27.4048 190.203 27.4292C190.37 27.4415 190.537 27.4865 190.691 27.5635C190.828 27.6317 190.961 27.7498 191.115 27.6615C191.152 27.6405 191.183 27.6094 191.208 27.5723C191.294 27.4454 191.288 27.2088 191.157 27.1174Z" fill="black"/>
<path d="M193.303 27.1174C194.096 26.6359 195.126 26.6639 195.874 27.2272C196.014 27.3326 196.038 27.5451 195.932 27.6825C195.824 27.8228 195.617 27.8465 195.477 27.7406C195.17 27.5093 194.779 27.4091 194.399 27.4345C194.206 27.4472 194.016 27.4918 193.838 27.5666C193.681 27.6326 193.526 27.7494 193.351 27.6619C193.309 27.6409 193.273 27.6099 193.245 27.5727C193.146 27.4454 193.153 27.2088 193.303 27.1174Z" fill="black"/>
<path d="M191.473 30.7665C191.442 30.7665 191.413 30.746 191.404 30.7145C191.267 30.2448 191.427 30.0856 191.585 30.0344C191.745 29.9833 191.937 30.0244 192.155 30.1591C192.189 30.1796 192.199 30.2242 192.178 30.2584C192.157 30.2916 192.112 30.3021 192.079 30.2815C191.899 30.1704 191.747 30.1328 191.629 30.1713C191.487 30.2168 191.458 30.386 191.541 30.6743C191.552 30.7123 191.53 30.7521 191.492 30.7635C191.486 30.7657 191.479 30.7665 191.473 30.7665Z" fill="#C16B5B"/>
<path d="M193.323 31.4667C193.158 31.1619 192.638 31.4269 192.044 31.4269C191.449 31.4269 190.929 31.1619 190.765 31.4667C190.556 31.852 191.069 32.8111 192.044 32.8111C193.018 32.8111 193.532 31.852 193.323 31.4667Z" fill="#8E4136"/>
<path d="M193.24 32.1041C193.053 32.0805 192.855 32.0652 192.645 32.0652C191.953 32.0652 191.36 32.2073 191.083 32.4116C191.311 32.6372 191.633 32.8108 192.044 32.8108C192.629 32.8108 193.044 32.464 193.24 32.1041Z" fill="#C16B5B"/>
<path d="M192.044 31.7612C192.575 31.7612 193.026 31.6353 193.191 31.3488C192.956 31.2543 192.524 31.4271 192.044 31.4271C191.563 31.4271 191.132 31.2543 190.896 31.3488C191.062 31.6353 191.513 31.7612 192.044 31.7612Z" fill="white"/>
<path d="M192 29.6408C192.838 29.6408 195.794 30.5282 196.876 30.8614C196.901 30.8465 196.922 30.8291 196.953 30.8199C198.337 30.3913 199.704 29.908 201.049 29.3706C201.226 29.3001 201.435 29.4475 201.481 29.6159C201.537 29.8162 201.413 29.9776 201.236 30.048C199.918 30.5741 198.581 31.0477 197.226 31.4693C197.182 32.0243 197.15 32.9807 197.316 33.9341C198.59 33.0595 199.812 32.1139 200.976 31.0971C201.315 30.8006 201.814 31.2957 201.473 31.594C200.221 32.6864 198.905 33.7037 197.532 34.6382C197.517 34.6487 197.502 34.6553 197.487 34.6627L197.487 34.6645C197.487 34.6645 194.687 36.3193 192.382 36.646C192.333 36.611 192.284 36.5721 192.231 36.5371C191.676 36.14 191.002 35.7289 190.25 35.0861C189.21 34.204 188.427 32.9921 188.085 31.0525C188.711 30.7652 191.1 29.6408 192 29.6408Z" fill="white"/>
<path d="M203.435 31.3665C202.69 32.2547 201.514 32.4957 200.809 31.9044C200.104 31.3132 200.136 30.1136 200.881 29.2253C201.626 28.3371 202.802 28.0961 203.507 28.6874C204.212 29.2787 204.18 30.4783 203.435 31.3665Z" fill="#F08E75"/>
<path d="M203.02 29.1224C202.704 28.9549 202.281 28.9627 201.891 29.1442C201.696 29.2343 201.556 29.3445 201.459 29.4801C201.332 29.6599 201.297 29.8855 201.367 30.0688C201.43 30.2332 201.561 30.3403 201.677 30.4348C201.761 30.503 201.84 30.5673 201.885 30.6447C201.954 30.7632 201.937 30.929 201.845 31.0305C201.753 31.1315 201.59 31.1643 201.465 31.107C201.392 31.0733 201.305 31.1052 201.272 31.1778C201.238 31.2504 201.27 31.3375 201.343 31.3711C201.423 31.4079 201.51 31.4258 201.597 31.4258C201.769 31.4258 201.943 31.3554 202.061 31.2259C202.237 31.0313 202.27 30.7252 202.137 30.4982C202.066 30.3758 201.958 30.2874 201.861 30.2091C201.765 30.1309 201.675 30.057 201.639 29.9647C201.604 29.8724 201.626 29.7482 201.697 29.6485C201.726 29.6083 201.765 29.572 201.808 29.537C201.952 29.5357 202.133 29.5803 202.225 29.68C202.327 29.7928 202.376 29.9559 202.352 30.1064C202.338 30.1855 202.392 30.2603 202.471 30.2734C202.479 30.2747 202.487 30.2756 202.495 30.2756C202.565 30.2756 202.627 30.2249 202.639 30.1536C202.679 29.9139 202.604 29.6634 202.44 29.4836C202.379 29.4167 202.302 29.3717 202.222 29.3349C202.463 29.2702 202.701 29.2829 202.885 29.3804C203.113 29.5007 203.285 29.8116 203.168 30.0644C203.134 30.1374 203.166 30.224 203.239 30.2577C203.312 30.2914 203.398 30.2599 203.432 30.1864C203.601 29.8173 203.413 29.3305 203.02 29.1224Z" fill="#C16B5B"/>
<path d="M113.5 168.374C134.237 168.374 151.047 167.276 151.047 165.92C151.047 164.565 134.237 163.466 113.5 163.466C92.7637 163.466 75.9534 164.565 75.9534 165.92C75.9534 167.276 92.7637 168.374 113.5 168.374Z" fill="#FFCF8C"/>
<path d="M85.9559 164.23C85.9559 165.328 85.0651 166.219 83.9665 166.219C82.8675 166.219 81.9771 165.328 81.9771 164.23C81.9771 163.131 82.8679 162.24 83.9665 162.24C85.0655 162.24 85.9559 163.131 85.9559 164.23Z" fill="#5C2A9D"/>
<path d="M102.3 164.23C102.3 165.328 101.409 166.219 100.31 166.219C99.2119 166.219 98.321 165.328 98.321 164.23C98.321 163.131 99.2119 162.24 100.31 162.24C101.409 162.24 102.3 163.131 102.3 164.23Z" fill="#5C2A9D"/>
<path d="M105.198 162.841H81.8035C80.4762 162.841 79.3999 161.764 79.3999 160.437V123.797C79.3999 122.47 80.4762 121.393 81.8035 121.393H105.198C106.525 121.393 107.601 122.47 107.601 123.797V160.437C107.601 161.765 106.525 162.841 105.198 162.841Z" fill="#D3C889"/>
<path d="M100.668 133.768H99.4132V107.991C99.4132 107.309 98.8591 106.756 98.1777 106.756H86.6811C86.0002 106.756 85.4461 107.31 85.4461 107.991V133.768H84.1909V107.991C84.1909 106.617 85.3079 105.5 86.6811 105.5H98.1777C99.5509 105.5 100.668 106.617 100.668 107.991V133.768Z" fill="#5C2A9D"/>
<path d="M101.776 162.841H78.3819C77.0545 162.841 75.9783 161.764 75.9783 160.437V123.797C75.9783 122.47 77.0545 121.393 78.3819 121.393H101.776C103.103 121.393 104.18 122.47 104.18 123.797V160.437C104.18 161.765 103.104 162.841 101.776 162.841Z" fill="#F1EBBB"/>
<path d="M81.4031 158.355C80.828 158.355 80.3613 157.889 80.3613 157.313V126.922C80.3613 126.347 80.8275 125.88 81.4031 125.88C81.9782 125.88 82.4448 126.346 82.4448 126.922V157.313C82.4444 157.889 81.9782 158.355 81.4031 158.355Z" fill="#D3C889"/>
<path d="M85.7824 158.355C85.2074 158.355 84.7407 157.889 84.7407 157.313V126.922C84.7407 126.347 85.2069 125.88 85.7824 125.88C86.3575 125.88 86.8242 126.346 86.8242 126.922V157.313C86.8242 157.889 86.358 158.355 85.7824 158.355Z" fill="#D3C889"/>
<path d="M90.1623 158.355C89.5872 158.355 89.1206 157.889 89.1206 157.313V126.922C89.1206 126.347 89.5868 125.88 90.1623 125.88C90.7374 125.88 91.2041 126.346 91.2041 126.922V157.313C91.2041 157.889 90.7374 158.355 90.1623 158.355Z" fill="#D3C889"/>
<path d="M94.5422 158.355C93.9671 158.355 93.5005 157.889 93.5005 157.313V126.922C93.5005 126.347 93.9667 125.88 94.5422 125.88C95.1173 125.88 95.5839 126.346 95.5839 126.922V157.313C95.5835 157.889 95.1173 158.355 94.5422 158.355Z" fill="#D3C889"/>
<path d="M98.9221 158.355C98.347 158.355 97.8804 157.889 97.8804 157.313V126.922C97.8804 126.347 98.3466 125.88 98.9221 125.88C99.4972 125.88 99.9638 126.346 99.9638 126.922V157.313C99.9634 157.889 99.4972 158.355 98.9221 158.355Z" fill="#D3C889"/>
<path d="M104.11 160.041C104.11 160.041 97.3866 162.789 94.5714 163.281C91.7563 163.772 91.7896 166.178 91.7896 166.178C91.7896 166.178 102.162 166.546 105.658 165.067L106.28 166.178C106.28 166.178 110.577 166.24 110.587 166.178C110.598 166.116 111.068 162.798 109.851 160.041H104.11Z" fill="#1A0F24"/>
<path d="M109.569 89.0623C109.569 89.0623 102.355 123.974 104.002 160.04C104.002 160.04 104.335 160.771 109.743 160.04C109.743 160.04 115.706 111.496 123.243 88.8975L109.569 89.0623Z" fill="#8C0C5B"/>
<path d="M133.09 160.04C133.09 160.04 139.813 162.789 142.628 163.28C145.443 163.772 145.41 166.178 145.41 166.178C145.41 166.178 135.038 166.546 131.541 165.067L130.919 166.178C130.919 166.178 126.622 166.24 126.612 166.178C126.602 166.116 126.131 162.798 127.348 160.04H133.09Z" fill="#1A0F24"/>
<path d="M135.229 89.0623C135.229 89.0623 135.621 123.831 133.136 160.04C133.136 160.04 132.804 160.771 127.395 160.04C127.395 160.04 124.345 112.448 121.555 88.8975L135.229 89.0623Z" fill="#8C0C5B"/>
<path d="M107.044 116.254L140.38 124.671C141.78 125.024 143.219 124.009 143.505 122.456C144.6 116.512 145.193 102.953 129.156 98.903C113.118 94.8533 107.203 107.069 105.344 112.819C104.859 114.323 105.644 115.9 107.044 116.254Z" fill="#D3C889"/>
<path d="M136.389 92.434C132.936 89.9481 128.26 90.2412 125.022 92.9399C123.283 94.3897 122.032 96.3231 120.961 98.2951C120.293 99.5244 122.21 100.543 122.877 99.3154C124.39 96.5291 126.417 93.6077 129.752 92.9828C132.874 92.3976 136.163 94.0818 137.438 97.0115C138.162 98.6756 138.243 100.65 137.585 102.35C137.373 102.896 137.471 103.52 138.032 103.819C138.501 104.068 139.287 103.921 139.5 103.371C141.025 99.4343 139.858 94.9316 136.389 92.434Z" fill="#D3C889"/>
<path d="M111.165 117.294L144.502 125.712C145.901 126.065 147.341 125.05 147.627 123.497C148.721 117.553 149.315 103.994 133.277 99.944C117.24 95.8943 111.325 108.11 109.466 113.861C108.98 115.364 109.765 116.941 111.165 117.294Z" fill="#F1EBBB"/>
<path d="M122.37 108.507C122.37 108.507 120.035 114.622 121.035 115.562C122.036 116.502 134.857 119.911 136.839 119.552C138.821 119.193 139.175 112.751 139.175 112.751L122.37 108.507Z" fill="#8C0C5B"/>
<path d="M124.169 104.174C123.483 104.363 121.277 109.091 122.088 109.863C122.898 110.635 138.222 114.53 139.23 114.191C140.237 113.852 140.553 108.724 139.996 108.171C139.439 107.618 124.999 103.946 124.169 104.174Z" fill="#B5076B"/>
<path d="M92.9126 31.7339C93.5096 31.5086 94.1489 33.7565 94.1489 33.7565C94.1489 33.7565 92.9336 28.8308 93.7029 28.6244C94.4721 28.418 95.3735 33.2396 95.3735 33.2396C95.3735 33.2396 94.257 27.3365 95.0735 27.1659C95.89 26.9953 96.8175 33.0222 96.8175 33.0222C96.8175 33.0222 96.5897 28.2903 97.4211 28.2251C98.5634 28.1359 98.3045 38.3232 98.3045 38.3232L94.3519 38.8423C94.3519 38.8423 92.3156 31.9591 92.9126 31.7339Z" fill="#66311E"/>
<path d="M98.3046 38.3229C98.3046 38.3229 101.181 34.3493 100.703 33.5153C100.224 32.6813 97.6521 35.4121 97.6521 35.4121L98.3046 38.3229Z" fill="#66311E"/>
<path d="M113.758 42.8723C110.093 43.9272 103.45 55.3555 103.091 55.3416C102.709 55.3267 101.969 40.6148 98.3046 38.3236C97.4549 37.7927 94.6634 37.8766 94.328 38.8204C92.0473 45.2392 95.388 65.803 101.726 65.8039C106.307 65.8048 114.843 53.3526 114.843 53.3526L113.758 42.8723Z" fill="#6F43B5"/>
<path d="M135.928 89.8229C135.928 89.8229 134.975 90.1221 133.402 90.5196C133.137 90.5878 132.859 90.6565 132.56 90.7291C126.855 92.1049 115.308 94.1862 109.163 90.3442C109.035 90.2673 108.911 90.1859 108.787 90.1007C108.787 90.1007 108.826 89.6948 108.894 88.9596C108.933 88.5153 108.984 87.9468 109.048 87.2715C109.125 86.4555 109.215 85.4811 109.317 84.3786C109.369 83.8446 109.42 83.2761 109.476 82.6822C109.561 81.7804 109.655 80.8104 109.753 79.7931C109.805 79.246 109.86 78.6779 109.912 78.1011C110.006 77.1696 110.1 76.2035 110.198 75.2081C110.215 75.0328 110.232 74.8578 110.249 74.6781C110.288 74.2932 110.322 73.9044 110.365 73.5157C110.454 72.5671 110.548 71.601 110.647 70.6227C110.698 70.0629 110.758 69.4987 110.814 68.9302C110.908 67.9685 111.006 66.9985 111.104 66.0285C111.159 65.4644 111.219 64.9046 111.275 64.3448C111.301 64.0841 111.326 63.8235 111.356 63.5672C111.429 62.8578 111.501 62.1485 111.574 61.4435C111.6 61.1999 111.625 60.9607 111.651 60.7215C111.681 60.3965 111.715 60.076 111.749 59.7515C111.749 59.7344 111.754 59.7217 111.754 59.7042C111.805 59.2472 111.857 58.7941 111.899 58.3498C111.937 58.0122 111.972 57.6663 112.01 57.3326C112.027 57.1703 112.044 57.0076 112.061 56.8498C112.091 56.5594 112.126 56.2729 112.151 55.9821C112.181 55.7429 112.211 55.5036 112.232 55.2601C112.237 55.2259 112.241 55.1958 112.245 55.1616C112.249 55.1017 112.258 55.0418 112.262 54.978C112.313 54.5205 112.365 54.0718 112.416 53.6275C112.459 53.2982 112.484 52.9649 112.523 52.6404C112.535 52.5123 112.552 52.3841 112.565 52.256C112.634 51.6835 112.698 51.1194 112.762 50.5723C112.882 49.555 113.001 48.5811 113.117 47.6662C113.189 47.0806 113.258 46.5208 113.33 45.9825C113.467 44.9057 113.6 43.927 113.728 43.0764C113.737 43.0082 113.749 42.9395 113.758 42.8713L114.497 42.6321L114.886 42.5039L117.412 41.6791L118.45 41.3371L118.626 41.2816L119.574 40.9741H125.288L125.668 41.1023L126.575 41.397L127.228 41.6109L130.292 42.615L130.344 42.6364L131.074 42.8713L131.079 42.9141C131.083 42.9229 131.083 42.9356 131.087 42.9526C131.126 43.2391 131.263 44.269 131.468 45.8456C131.536 46.3542 131.609 46.9223 131.69 47.5381C131.801 48.4057 131.925 49.3757 132.057 50.4227C132.109 50.8329 132.164 51.2563 132.22 51.6875C132.237 51.8283 132.254 51.9652 132.275 52.1104C132.322 52.4865 132.369 52.8753 132.42 53.2684C132.459 53.6187 132.502 53.9734 132.549 54.3281C132.578 54.5503 132.604 54.7724 132.63 54.999C132.66 55.2342 132.69 55.4735 132.715 55.7127C132.758 56.0333 132.797 56.3621 132.843 56.6914C132.843 56.7085 132.843 56.7212 132.848 56.7382C132.903 57.1913 132.959 57.6571 133.019 58.1228V58.1355C133.062 58.4688 133.1 58.7981 133.139 59.1313C133.156 59.2765 133.177 59.4217 133.194 59.5673C133.233 59.8923 133.271 60.2168 133.314 60.5461C133.34 60.7809 133.365 61.0206 133.395 61.2598C133.408 61.3451 133.417 61.4352 133.429 61.5249C133.532 62.3881 133.634 63.2641 133.737 64.1445C133.802 64.7043 133.865 65.2684 133.93 65.8326C134.041 66.7899 134.147 67.7555 134.255 68.7129C134.319 69.2814 134.383 69.8456 134.443 70.4093C134.545 71.3749 134.648 72.3322 134.746 73.2808C134.806 73.8533 134.866 74.4218 134.922 74.9816C135.02 75.9604 135.114 76.9216 135.204 77.8575C135.259 78.4343 135.31 79.0029 135.358 79.5583C135.447 80.558 135.529 81.5241 135.601 82.4386C135.648 83.0285 135.686 83.601 135.725 84.1481C135.797 85.1995 135.853 86.1695 135.892 87.0411C135.917 87.6691 135.93 88.2503 135.934 88.7677C135.934 88.8232 135.939 88.8744 135.934 88.9299C135.941 89.2544 135.937 89.5535 135.928 89.8229Z" fill="white"/>
<path d="M128.973 53.5267L113.793 53.2656L113.71 58.1414L128.889 58.4025L128.973 53.5267Z" fill="#F1EBBB"/>
<path d="M128.881 58.8522L113.702 58.5911L113.668 60.5545L128.848 60.8156L128.881 58.8522Z" fill="#F1EBBB"/>
<path d="M131.073 89.7007C131.073 89.7007 129.392 90.6628 129.296 90.8981C129.201 91.1334 129.021 93.7517 129.395 94.0285C129.769 94.3054 133.772 94.1947 134.312 93.8623C134.852 93.53 135.244 91.0783 135.244 91.0783L131.073 89.7007Z" fill="#66311E"/>
<path d="M131.073 42.8704C134.783 44.4268 144.423 63.8737 144.368 67.1983C144.313 70.5225 140.778 87.8816 135.244 91.078C134.293 91.6273 131.342 90.7654 131.073 89.7004C129.612 83.9123 136.649 68.6044 136.371 67.0553C136.093 65.5063 132.428 58.3891 132.428 58.3891L131.073 42.8704Z" fill="#6F43B5"/>
<path d="M125.668 41.103C125.668 41.103 124.182 84.2075 125.142 84.9461C126.103 85.6848 137.688 84.2075 137.621 82.8776C137.553 81.5481 131.073 42.8699 131.073 42.8699L125.668 41.103Z" fill="#6F43B5"/>
<path d="M118.945 41.179C118.945 41.179 117.723 84.7006 117.28 85.1436C116.837 85.5871 108.927 84.3184 108.521 84.1338C108.115 83.9493 113.64 42.9108 113.64 42.9108L118.945 41.179Z" fill="#6F43B5"/>
<path d="M134.219 61.9074C133.715 60.5014 133.117 59.1326 132.441 57.8022C132.436 57.7432 132.409 57.6859 132.365 57.6474C132.067 57.0697 131.759 56.4976 131.43 55.9365C131.289 55.696 130.913 55.9138 131.055 56.1556C131.313 56.5947 131.559 57.0404 131.798 57.4899C131.453 57.4047 131.111 57.3124 130.773 57.2035C130.662 57.1676 130.536 57.2455 130.506 57.3548C130.474 57.472 130.546 57.5857 130.658 57.6216C131.117 57.7694 131.584 57.8932 132.055 57.9973C132.719 59.3009 133.307 60.6427 133.801 62.0216C133.894 62.284 134.313 62.1716 134.219 61.9074Z" fill="#6F43B5"/>
<path d="M112.332 51.319C111.995 53.1457 111.727 54.9843 111.528 56.8311C111.498 57.1084 111.932 57.1062 111.962 56.8311C112.157 55.0227 112.42 53.2231 112.75 51.4344C112.8 51.1615 112.382 51.0443 112.332 51.319Z" fill="#6F43B5"/>
<path d="M130.157 23.8782C130.255 22.9559 130.248 21.9815 129.826 21.1558C129.404 20.3301 128.463 19.7096 127.56 19.919C127.425 19.148 126.956 18.4409 126.298 18.0179C125.639 17.5946 124.801 17.4617 124.044 17.6598C123.064 16.5328 121.985 15.4517 120.654 14.7738C119.324 14.0959 117.697 13.8668 116.331 14.4699C114.965 15.0734 113.993 16.6334 114.341 18.0857C113.689 17.9187 112.979 18.2423 112.554 18.7645C112.13 19.2871 111.955 19.9733 111.914 20.645C111.826 22.0768 112.289 23.4785 112.747 24.8382C113.184 26.1384 113.639 27.4718 114.518 28.5244C115.369 29.5421 116.564 30.2257 117.816 30.663C119.068 31.1003 120.386 31.3089 121.696 31.5158C123.172 31.7489 124.648 31.9816 126.124 32.2147C128.371 30.0083 129.828 27.01 130.157 23.8782Z" fill="black"/>
<path d="M130.157 23.8794C130.255 22.9571 130.248 21.9827 129.826 21.157C129.404 20.3313 128.463 19.7108 127.56 19.9203C127.425 19.1492 126.956 18.4421 126.298 18.0192C125.639 17.5958 124.801 17.4629 124.044 17.661C123.064 16.534 121.985 15.4529 120.654 14.775C119.324 14.0972 117.697 13.868 116.331 14.4711C114.965 15.0746 113.993 16.6346 114.341 18.087C113.689 17.9199 112.979 18.2435 112.554 18.7657C112.13 19.2883 111.955 19.9745 111.914 20.6462C111.826 22.0781 112.289 23.4797 112.747 24.8394C113.184 26.1396 113.639 27.473 114.518 28.5257C115.369 29.5433 116.564 30.2269 117.816 30.6642C119.068 31.1016 120.386 31.3102 121.696 31.517C123.172 31.7501 124.648 31.9828 126.124 32.2159C128.371 30.0095 129.828 27.0112 130.157 23.8794Z" fill="black"/>
<path d="M125.211 41.1625C124.074 43.7839 120.558 43.4716 119.643 41.1625C119.643 38.6885 119.122 37.7163 118.223 36.9483C118.137 36.8744 118.045 36.8053 117.954 36.7314C117.321 36.2495 116.54 35.8069 115.633 35.0389C114.53 34.1057 113.706 32.7994 113.389 30.677C113.384 30.6551 113.384 30.6337 113.38 30.6118C113.107 28.7107 113.219 26.1589 113.883 22.6261C114.569 18.963 123.41 17.3877 125.927 22.0012C126.964 23.9023 127.107 31.085 127.107 31.085C127.107 31.085 125.137 35.4334 125.211 41.1625Z" fill="#66311E"/>
<path d="M121.321 23.3366C121.702 24.171 122.612 24.7338 123.529 24.7006C123.87 26.5177 125.052 28.1595 126.668 29.0582C126.926 29.2021 127.233 29.3302 127.509 29.227C127.746 29.1391 127.894 28.9051 128.008 28.6795C129.115 26.4937 128.621 23.6943 127.079 21.7902C125.537 19.886 123.098 18.8377 120.654 18.6641C119.066 18.5513 117.429 18.7892 116.017 19.5239C115.264 19.9149 114.585 20.4519 114.041 21.1027C113.66 21.5579 112.85 22.5345 113.157 23.1782C113.323 23.529 113.785 23.6409 114.12 23.7525C114.564 23.9003 115.019 24.0149 115.48 24.0967C116.402 24.2598 117.348 24.2908 118.279 24.1889C119.331 24.0743 120.365 23.7896 121.321 23.3366Z" fill="black"/>
<path d="M120.522 29.1034C120.522 29.4165 120.269 29.6702 119.956 29.6702C119.643 29.6702 119.388 29.4165 119.388 29.1034C119.388 28.7903 119.643 28.5366 119.956 28.5366C120.269 28.5362 120.522 28.7903 120.522 29.1034Z" fill="black"/>
<path d="M119.956 28.948C119.956 29.0625 119.863 29.1557 119.748 29.1557C119.633 29.1557 119.54 29.063 119.54 28.948C119.54 28.8334 119.633 28.7402 119.748 28.7402C119.863 28.7402 119.956 28.8334 119.956 28.948Z" fill="white"/>
<path d="M116.137 29.1034C116.137 29.4165 115.883 29.6702 115.57 29.6702C115.257 29.6702 115.003 29.4165 115.003 29.1034C115.003 28.7903 115.258 28.5366 115.57 28.5366C115.883 28.5362 116.137 28.7903 116.137 29.1034Z" fill="black"/>
<path d="M115.57 28.948C115.57 29.0625 115.477 29.1557 115.363 29.1557C115.248 29.1557 115.155 29.063 115.155 28.948C115.155 28.8334 115.248 28.7402 115.363 28.7402C115.477 28.7402 115.57 28.8334 115.57 28.948Z" fill="white"/>
<path d="M116.517 26.8836C115.804 26.3877 114.879 26.4166 114.208 26.9969C114.082 27.1054 114.06 27.324 114.156 27.4657C114.253 27.6105 114.439 27.6345 114.565 27.5256C114.84 27.2873 115.191 27.1797 115.534 27.2051C115.707 27.2178 115.878 27.2641 116.038 27.3437C116.178 27.4141 116.316 27.5357 116.474 27.4447C116.512 27.4233 116.544 27.391 116.57 27.3529C116.658 27.2213 116.652 26.9777 116.517 26.8836Z" fill="black"/>
<path d="M118.727 26.8836C119.543 26.3877 120.604 26.4166 121.373 26.9969C121.517 27.1054 121.543 27.324 121.433 27.4657C121.321 27.6105 121.109 27.6345 120.965 27.5256C120.649 27.2873 120.246 27.1845 119.854 27.2108C119.656 27.2239 119.46 27.2698 119.276 27.3468C119.114 27.4146 118.955 27.5353 118.775 27.4447C118.732 27.4233 118.695 27.391 118.666 27.3529C118.565 27.2213 118.572 26.9777 118.727 26.8836Z" fill="black"/>
<path d="M117.542 32.3269C117.233 32.3269 116.911 32.2591 116.6 32.0956C116.455 32.0195 116.399 31.8402 116.475 31.6959C116.552 31.5511 116.73 31.4956 116.875 31.5712C117.625 31.9648 118.462 31.5603 118.701 31.2323C118.797 31.1011 118.982 31.0713 119.115 31.168C119.247 31.2646 119.276 31.4496 119.179 31.5821C118.898 31.967 118.254 32.3269 117.542 32.3269Z" fill="#C16B5B"/>
<path d="M116.841 30.6407C116.809 30.6407 116.78 30.6197 116.77 30.5873C116.63 30.1041 116.794 29.9396 116.957 29.8872C117.122 29.8342 117.319 29.8771 117.544 30.0157C117.579 30.0372 117.59 30.0827 117.568 30.1181C117.546 30.1526 117.5 30.1631 117.466 30.1421C117.281 30.0275 117.125 29.9891 117.003 30.0289C116.857 30.0757 116.827 30.2502 116.913 30.5471C116.924 30.586 116.901 30.6271 116.862 30.6389C116.855 30.6403 116.848 30.6407 116.841 30.6407Z" fill="#422014"/>
<path d="M126.826 29.8731C127.052 29.8093 127.216 29.6055 127.167 29.3627C127.125 29.1467 126.884 28.9578 126.657 29.0216C125.084 29.4664 123.534 29.9916 122.014 30.5903C121.169 30.3787 117.909 29.574 117.147 29.574C116.488 29.574 114.374 30.2728 113.38 30.6113C113.385 30.6332 113.384 30.6546 113.389 30.6765C113.705 32.7989 114.53 34.1052 115.633 35.0385C116.54 35.8069 117.321 36.2494 117.955 36.7309C118.046 36.8048 118.137 36.8739 118.224 36.9479C120.856 36.5586 122.362 34.3768 122.548 34.0929C122.589 34.0755 122.63 34.0562 122.667 34.0278C123.964 33.0171 125.311 32.0764 126.707 31.207C126.906 31.0832 127.007 30.8418 126.892 30.6218C126.791 30.4259 126.507 30.3118 126.307 30.436C124.957 31.277 123.65 32.1862 122.388 33.154C122.292 32.5225 122.249 31.901 122.23 31.4331C123.735 30.8348 125.268 30.314 126.826 29.8731Z" fill="white"/>
<path d="M129.047 31.2514C128.289 32.1554 127.092 32.4003 126.375 31.7985C125.658 31.1967 125.691 29.9761 126.449 29.0722C127.206 28.1682 128.403 27.9233 129.12 28.5251C129.837 29.1268 129.805 30.3474 129.047 31.2514Z" fill="#66311E"/>
<path d="M128.625 28.9674C128.303 28.7968 127.873 28.8047 127.476 28.9897C127.278 29.0815 127.135 29.1935 127.037 29.3313C126.907 29.5141 126.871 29.7437 126.943 29.9304C127.007 30.0979 127.141 30.2068 127.259 30.3026C127.344 30.3721 127.425 30.4377 127.47 30.516C127.54 30.6363 127.523 30.8051 127.429 30.9083C127.335 31.0115 127.17 31.0447 127.043 30.9861C126.968 30.9516 126.88 30.9844 126.846 31.0583C126.812 31.1322 126.844 31.2205 126.918 31.2551C126.999 31.2927 127.088 31.3106 127.176 31.3106C127.352 31.3106 127.528 31.2393 127.648 31.1073C127.828 30.9092 127.861 30.5978 127.726 30.3669C127.653 30.2422 127.543 30.1521 127.445 30.073C127.347 29.9934 127.255 29.9182 127.219 29.8241C127.183 29.7301 127.206 29.6041 127.278 29.5022C127.307 29.4616 127.347 29.4244 127.39 29.389C127.538 29.3877 127.722 29.4332 127.815 29.5346C127.92 29.6496 127.969 29.8154 127.944 29.9684C127.931 30.0494 127.985 30.125 128.066 30.1386C128.074 30.1399 128.082 30.1408 128.09 30.1408C128.161 30.1408 128.224 30.0892 128.236 30.0166C128.276 29.7725 128.2 29.5176 128.033 29.3348C127.971 29.267 127.893 29.2206 127.812 29.1834C128.056 29.1174 128.298 29.1305 128.486 29.2294C128.718 29.3518 128.893 29.668 128.774 29.9256C128.74 29.9999 128.772 30.0878 128.846 30.1224C128.92 30.1565 129.008 30.1246 129.043 30.0498C129.216 29.675 129.025 29.1795 128.625 28.9674Z" fill="#422014"/>
</svg>
