<svg width="20" height="20" viewBox="0 0 20 20" fill="none" xmlns="http://www.w3.org/2000/svg">
<path d="M19.6481 18.9711L13.7825 13.1007C15.1083 11.5978 15.7971 9.63803 15.7031 7.6362C15.6092 5.63438 14.7399 3.7477 13.2792 2.37562C11.8186 1.00355 9.88124 0.2538 7.87746 0.285123C5.87368 0.316446 3.96075 1.12638 2.54369 2.54344C1.12663 3.9605 0.31669 5.87343 0.285367 7.87722C0.254044 9.881 1.00379 11.8183 2.37587 13.279C3.74794 14.7396 5.63463 15.609 7.63645 15.7029C9.63827 15.7968 11.5981 15.108 13.1009 13.7823L18.9713 19.6479L19.6481 18.9711ZM8.03211 14.7519C6.70302 14.7519 5.40377 14.3577 4.29867 13.6193C3.19358 12.8809 2.33226 11.8314 1.82364 10.6035C1.31501 9.37558 1.18194 8.02441 1.44123 6.72085C1.70052 5.4173 2.34054 4.21991 3.28035 3.2801C4.22016 2.3403 5.41755 1.70028 6.7211 1.44099C8.02465 1.18169 9.37582 1.31477 10.6037 1.82339C11.8317 2.33201 12.8812 3.19333 13.6196 4.29843C14.358 5.40353 14.7521 6.70277 14.7521 8.03186C14.7521 9.81412 14.0441 11.5234 12.7839 12.7836C11.5236 14.0439 9.81436 14.7519 8.03211 14.7519Z" fill="black"/>
</svg>
